M48
; DRILL file {KiCad 7.0.9-7.0.9~ubuntu22.04.1} date Ср 09 апр 2025 21:41:55
; FORMAT={-:-/ absolute / inch / decimal}
; #@! TF.CreationDate,2025-04-09T21:41:55+03:00
; #@! TF.GenerationSoftware,Kicad,Pcbnew,7.0.9-7.0.9~ubuntu22.04.1
; #@! TF.FileFunction,Plated,1,2,PTH
FMAT,2
INCH
; #@! TA.AperFunction,Plated,PTH,ComponentDrill
T1C0.0394
; #@! TA.AperFunction,Plated,PTH,ComponentDrill
T2C0.0413
; #@! TA.AperFunction,Plated,PTH,ComponentDrill
T3C0.0430
; #@! TA.AperFunction,Plated,PTH,ComponentDrill
T4C0.1201
%
G90
G05
T1
X6.3234Y-4.9739
X6.6234Y-4.9739
T2
X6.7726Y-3.7468
X6.8711Y-3.7468
T3
X6.1725Y-4.3944
X6.2591Y-4.4444
X6.3457Y-4.4944
X6.4323Y-4.5444
X6.4351Y-4.1996
X6.4725Y-3.8748
X6.4851Y-4.113
X6.5189Y-4.5944
X6.5351Y-4.0264
X6.5591Y-3.9248
X6.6055Y-4.6444
X6.6457Y-3.9748
X6.6921Y-4.6944
X6.7323Y-4.0248
X6.7787Y-4.7444
X6.8189Y-4.0748
X6.8653Y-4.7944
X6.9055Y-4.1248
X6.9519Y-4.8444
X6.9921Y-4.1748
X7.0385Y-4.8944
X7.0787Y-4.2248
X7.1251Y-4.9444
X7.1653Y-4.2748
X7.2117Y-4.9944
X7.2519Y-4.3248
X7.3385Y-4.3748
X7.4251Y-4.4248
X7.5117Y-4.4748
T4
X4.497Y-1.985
X4.497Y-2.6542
X4.497Y-3.3235
X4.497Y-3.9928
X4.6939Y-2.0676
X4.6939Y-2.7369
X4.6939Y-3.4062
X4.6939Y-4.0755
X5.0089Y-4.3747
X5.2057Y-1.6503
X5.2057Y-2.3196
X5.2057Y-2.9889
X5.2057Y-4.4574
X5.4026Y-1.733
X5.4026Y-2.4023
X5.4026Y-3.0716
X5.9144Y-1.483
X5.9144Y-2.1523
X5.9144Y-2.8216
X5.9144Y-3.4909
X5.9144Y-4.4948
X6.1112Y-1.5657
X6.1112Y-2.235
X6.1112Y-2.9042
X6.1112Y-3.5735
X6.1112Y-4.5775
X6.623Y-1.6503
X6.623Y-2.3196
X6.623Y-2.9889
X6.8199Y-1.733
X6.8199Y-2.4023
X6.8199Y-3.0716
X7.1348Y-1.6976
X7.3317Y-1.7802
X7.3317Y-1.985
X7.3317Y-2.6542
X7.3317Y-3.3235
X7.5285Y-2.0676
X7.5285Y-2.7369
X7.5285Y-3.4062
T1
G00X4.5896Y-1.7763
M15
G01X4.5896Y-1.796
M16
G05
G00X4.7589Y-1.4417
M15
G01X4.7589Y-1.4613
M16
G05
G00X4.7589Y-1.5598
M15
G01X4.7589Y-1.5794
M16
G05
G00X4.7589Y-1.7172
M15
G01X4.7589Y-1.7369
M16
G05
T0
M30
