M48
; DRILL file {KiCad 7.0.9-7.0.9~ubuntu22.04.1} date Ср 09 апр 2025 21:41:55
; FORMAT={-:-/ absolute / inch / decimal}
; #@! TF.CreationDate,2025-04-09T21:41:55+03:00
; #@! TF.GenerationSoftware,Kicad,Pcbnew,7.0.9-7.0.9~ubuntu22.04.1
; #@! TF.FileFunction,NonPlated,1,2,NPTH
FMAT,2
INCH
; #@! TA.AperFunction,NonPlated,NPTH,ComponentDrill
T1C0.0472
; #@! TA.AperFunction,NonPlated,NPTH,ComponentDrill
T2C0.0748
; #@! TA.AperFunction,NonPlated,NPTH,ComponentDrill
T3C0.1358
%
G90
G05
T1
X4.6742Y-1.3806
X4.6742Y-1.6562
T2
X4.2805Y-2.2172
X4.2805Y-2.8865
X4.2805Y-3.5558
X4.2805Y-4.2251
X4.7136Y-2.2172
X4.7136Y-2.8865
X4.7136Y-3.5558
X4.7136Y-4.2251
X4.9892Y-1.8826
X4.9892Y-2.5519
X4.9892Y-3.2212
X4.9892Y-4.2251
X5.4222Y-1.8826
X5.4222Y-2.5519
X5.4222Y-3.2212
X5.4222Y-4.2251
X5.6978Y-1.7153
X5.6978Y-2.3846
X5.6978Y-3.0539
X5.6978Y-3.7231
X5.6978Y-4.7271
X6.1309Y-1.7153
X6.1309Y-2.3846
X6.1309Y-3.0539
X6.1309Y-3.7231
X6.1309Y-4.7271
X6.4065Y-1.8826
X6.4065Y-2.5519
X6.4065Y-3.2212
X6.8396Y-1.8826
X6.8396Y-2.5519
X6.8396Y-3.2212
X7.1152Y-1.548
X7.1152Y-2.2172
X7.1152Y-2.8865
X7.1152Y-3.5558
X7.5482Y-1.548
X7.5482Y-2.2172
X7.5482Y-2.8865
X7.5482Y-3.5558
T3
X4.497Y-2.2172
X4.497Y-2.8865
X4.497Y-3.5558
X4.497Y-4.2251
X5.2057Y-1.8826
X5.2057Y-2.5519
X5.2057Y-3.2212
X5.2057Y-4.2251
X5.9144Y-1.7153
X5.9144Y-2.3846
X5.9144Y-3.0539
X5.9144Y-3.7231
X5.9144Y-4.7271
X6.623Y-1.8826
X6.623Y-2.5519
X6.623Y-3.2212
X7.3317Y-1.548
X7.3317Y-2.2172
X7.3317Y-2.8865
X7.3317Y-3.5558
T0
M30
