%TF.GenerationSoftware,KiCad,Pcbnew,7.0.9-7.0.9~ubuntu22.04.1*%
%TF.CreationDate,2025-04-09T21:42:00+03:00*%
%TF.ProjectId,Keeb,4b656562-2e6b-4696-9361-645f70636258,rev?*%
%TF.SameCoordinates,Original*%
%TF.FileFunction,Copper,L1,Top*%
%TF.FilePolarity,Positive*%
%FSLAX46Y46*%
G04 Gerber Fmt 4.6, Leading zero omitted, Abs format (unit mm)*
G04 Created by KiCad (PCBNEW 7.0.9-7.0.9~ubuntu22.04.1) date 2025-04-09 21:42:00*
%MOMM*%
%LPD*%
G01*
G04 APERTURE LIST*
%TA.AperFunction,ComponentPad*%
%ADD10C,1.752600*%
%TD*%
%TA.AperFunction,ComponentPad*%
%ADD11C,3.600000*%
%TD*%
%TA.AperFunction,ComponentPad*%
%ADD12O,1.500000X2.300000*%
%TD*%
%TA.AperFunction,ComponentPad*%
%ADD13R,1.580000X1.580000*%
%TD*%
%TA.AperFunction,ComponentPad*%
%ADD14C,1.580000*%
%TD*%
%TA.AperFunction,ComponentPad*%
%ADD15R,1.575000X1.575000*%
%TD*%
%TA.AperFunction,ComponentPad*%
%ADD16C,1.575000*%
%TD*%
G04 APERTURE END LIST*
D10*
%TO.P,U3,1,TX0/P0.06*%
%TO.N,1*%
X188598375Y-112388830D03*
%TO.P,U3,2,RX1/P0.08*%
%TO.N,2*%
X186398670Y-111118830D03*
%TO.P,U3,3,GND*%
%TO.N,GND*%
X184198966Y-109848830D03*
%TO.P,U3,4,GND*%
X181999261Y-108578830D03*
%TO.P,U3,5,P0.17*%
%TO.N,3*%
X179799557Y-107308830D03*
%TO.P,U3,6,P0.20*%
%TO.N,4*%
X177599852Y-106038830D03*
%TO.P,U3,7,P0.22*%
%TO.N,5*%
X175400148Y-104768830D03*
%TO.P,U3,8,P0.24*%
%TO.N,6*%
X173200443Y-103498830D03*
%TO.P,U3,9,P1.00*%
%TO.N,7*%
X171000739Y-102228830D03*
%TO.P,U3,10,P0.11*%
%TO.N,8*%
X168801034Y-100958830D03*
%TO.P,U3,11,P1.04*%
%TO.N,9*%
X166601330Y-99688830D03*
%TO.P,U3,12,P1.06*%
%TO.N,10*%
X164401625Y-98418830D03*
%TO.P,U3,13,NFC1/P0.09*%
%TO.N,14*%
X156781625Y-111617058D03*
%TO.P,U3,14,NFC2/P0.10*%
%TO.N,15*%
X158981330Y-112887058D03*
%TO.P,U3,15,P1.11*%
%TO.N,16*%
X161181034Y-114157058D03*
%TO.P,U3,16,P1.13*%
%TO.N,17*%
X163380739Y-115427058D03*
%TO.P,U3,17,P1.15*%
%TO.N,18*%
X165580443Y-116697058D03*
%TO.P,U3,18,AIN0/P0.02*%
%TO.N,19*%
X167780148Y-117967058D03*
%TO.P,U3,19,AIN5/P0.29*%
%TO.N,20*%
X169979852Y-119237058D03*
%TO.P,U3,20,AIN7/P0.31*%
%TO.N,21*%
X172179557Y-120507058D03*
%TO.P,U3,21,VCC*%
%TO.N,3v3*%
X174379261Y-121777058D03*
%TO.P,U3,22,RST*%
%TO.N,RST*%
X176578966Y-123047058D03*
%TO.P,U3,23,GND*%
%TO.N,GND*%
X178778670Y-124317058D03*
%TO.P,U3,24,BATIN/P0.04*%
%TO.N,3v3*%
X180978375Y-125587058D03*
%TO.P,U3,25,B+*%
X183178079Y-126857058D03*
%TO.P,U3,26,B-*%
%TO.N,B-*%
X190798079Y-113658830D03*
%TO.P,U3,31,P1.01*%
%TO.N,11*%
X165991241Y-102269535D03*
%TO.P,U3,32,P1.02*%
%TO.N,12*%
X164721241Y-104469239D03*
%TO.P,U3,33,P1.07*%
%TO.N,13*%
X163451241Y-106668944D03*
%TD*%
D11*
%TO.P,SW3,1*%
%TO.N,3*%
X186225000Y-50417944D03*
%TO.P,SW3,2*%
%TO.N,GND*%
X191225000Y-52517944D03*
%TD*%
%TO.P,SW4,1*%
%TO.N,2*%
X186225000Y-67417944D03*
%TO.P,SW4,2*%
%TO.N,GND*%
X191225000Y-69517944D03*
%TD*%
%TO.P,SW5,1*%
%TO.N,1*%
X186225000Y-84417944D03*
%TO.P,SW5,2*%
%TO.N,GND*%
X191225000Y-86517944D03*
%TD*%
%TO.P,SW6,1*%
%TO.N,6*%
X168225000Y-41917944D03*
%TO.P,SW6,2*%
%TO.N,GND*%
X173225000Y-44017944D03*
%TD*%
%TO.P,SW7,1*%
%TO.N,5*%
X168225000Y-58917944D03*
%TO.P,SW7,2*%
%TO.N,GND*%
X173225000Y-61017944D03*
%TD*%
%TO.P,SW8,1*%
%TO.N,4*%
X168225000Y-75917944D03*
%TO.P,SW8,2*%
%TO.N,GND*%
X173225000Y-78017944D03*
%TD*%
%TO.P,SW9,1*%
%TO.N,9*%
X150225000Y-37667944D03*
%TO.P,SW9,2*%
%TO.N,GND*%
X155225000Y-39767944D03*
%TD*%
%TO.P,SW10,1*%
%TO.N,8*%
X150225000Y-54667944D03*
%TO.P,SW10,2*%
%TO.N,GND*%
X155225000Y-56767944D03*
%TD*%
%TO.P,SW11,1*%
%TO.N,7*%
X150225000Y-71667944D03*
%TO.P,SW11,2*%
%TO.N,GND*%
X155225000Y-73767944D03*
%TD*%
%TO.P,SW13,1*%
%TO.N,GND*%
X132225000Y-41917944D03*
%TO.P,SW13,2*%
%TO.N,12*%
X137225000Y-44017944D03*
%TD*%
%TO.P,SW14,1*%
%TO.N,GND*%
X132225000Y-58917944D03*
%TO.P,SW14,2*%
%TO.N,14*%
X137225000Y-61017944D03*
%TD*%
%TO.P,SW15,1*%
%TO.N,GND*%
X132225000Y-75917944D03*
%TO.P,SW15,2*%
%TO.N,15*%
X137225000Y-78017944D03*
%TD*%
%TO.P,SW16,1*%
%TO.N,20*%
X132225000Y-113217944D03*
%TO.P,SW16,2*%
%TO.N,GND*%
X127225000Y-111117944D03*
%TD*%
%TO.P,SW17,1*%
%TO.N,GND*%
X114225000Y-50417944D03*
%TO.P,SW17,2*%
%TO.N,17*%
X119225000Y-52517944D03*
%TD*%
%TO.P,SW18,1*%
%TO.N,GND*%
X114225000Y-67417944D03*
%TO.P,SW18,2*%
%TO.N,16*%
X119225000Y-69517944D03*
%TD*%
%TO.P,SW19,1*%
%TO.N,GND*%
X114225000Y-84417944D03*
%TO.P,SW19,2*%
%TO.N,18*%
X119225000Y-86517944D03*
%TD*%
%TO.P,SW20,1*%
%TO.N,GND*%
X114225000Y-101417944D03*
%TO.P,SW20,2*%
%TO.N,21*%
X119225000Y-103517944D03*
%TD*%
%TO.P,SW2,1*%
%TO.N,11*%
X186225000Y-45217944D03*
%TO.P,SW2,2*%
%TO.N,GND*%
X181225000Y-43117944D03*
%TD*%
%TO.P,SW1,1*%
%TO.N,GND*%
X150225000Y-114167944D03*
%TO.P,SW1,2*%
%TO.N,19*%
X155225000Y-116267944D03*
%TD*%
D12*
%TO.P,J3,1,A*%
%TO.N,3v3*%
X116575000Y-45367944D03*
%TO.P,J3,2,B*%
%TO.N,GND*%
X120875000Y-36867944D03*
%TO.P,J3,3,C*%
%TO.N,10*%
X120875000Y-39867944D03*
%TO.P,J3,4,D*%
%TO.N,unconnected-(J3-D-Pad4)*%
X120875000Y-43867944D03*
%TD*%
D11*
%TO.P,SW12,1*%
%TO.N,GND*%
X150225000Y-88667944D03*
%TO.P,SW12,2*%
%TO.N,13*%
X155225000Y-90767944D03*
%TD*%
D13*
%TO.P,S1,1A*%
%TO.N,B-*%
X160615000Y-126337944D03*
D14*
%TO.P,S1,1B*%
%TO.N,Net-(J2-Pad2)*%
X168235000Y-126337944D03*
%TD*%
D15*
%TO.P,J2,1,1*%
%TO.N,3v3*%
X174525000Y-95167944D03*
D16*
%TO.P,J2,2,2*%
%TO.N,Net-(J2-Pad2)*%
X172025000Y-95167944D03*
%TD*%
M02*
