%TF.GenerationSoftware,KiCad,Pcbnew,7.0.9-7.0.9~ubuntu22.04.1*%
%TF.CreationDate,2025-04-09T21:42:00+03:00*%
%TF.ProjectId,Keeb,4b656562-2e6b-4696-9361-645f70636258,rev?*%
%TF.SameCoordinates,Original*%
%TF.FileFunction,Copper,L2,Bot*%
%TF.FilePolarity,Positive*%
%FSLAX46Y46*%
G04 Gerber Fmt 4.6, Leading zero omitted, Abs format (unit mm)*
G04 Created by KiCad (PCBNEW 7.0.9-7.0.9~ubuntu22.04.1) date 2025-04-09 21:42:00*
%MOMM*%
%LPD*%
G01*
G04 APERTURE LIST*
G04 Aperture macros list*
%AMRoundRect*
0 Rectangle with rounded corners*
0 $1 Rounding radius*
0 $2 $3 $4 $5 $6 $7 $8 $9 X,Y pos of 4 corners*
0 Add a 4 corners polygon primitive as box body*
4,1,4,$2,$3,$4,$5,$6,$7,$8,$9,$2,$3,0*
0 Add four circle primitives for the rounded corners*
1,1,$1+$1,$2,$3*
1,1,$1+$1,$4,$5*
1,1,$1+$1,$6,$7*
1,1,$1+$1,$8,$9*
0 Add four rect primitives between the rounded corners*
20,1,$1+$1,$2,$3,$4,$5,0*
20,1,$1+$1,$4,$5,$6,$7,0*
20,1,$1+$1,$6,$7,$8,$9,0*
20,1,$1+$1,$8,$9,$2,$3,0*%
G04 Aperture macros list end*
%TA.AperFunction,ComponentPad*%
%ADD10C,1.752600*%
%TD*%
%TA.AperFunction,SMDPad,CuDef*%
%ADD11RoundRect,0.250000X-1.675000X-1.000000X1.675000X-1.000000X1.675000X1.000000X-1.675000X1.000000X0*%
%TD*%
%TA.AperFunction,ComponentPad*%
%ADD12C,3.600000*%
%TD*%
%TA.AperFunction,SMDPad,CuDef*%
%ADD13RoundRect,0.250000X1.675000X1.000000X-1.675000X1.000000X-1.675000X-1.000000X1.675000X-1.000000X0*%
%TD*%
%TA.AperFunction,ComponentPad*%
%ADD14O,1.500000X2.300000*%
%TD*%
%TA.AperFunction,ComponentPad*%
%ADD15R,1.580000X1.580000*%
%TD*%
%TA.AperFunction,ComponentPad*%
%ADD16C,1.580000*%
%TD*%
%TA.AperFunction,ComponentPad*%
%ADD17R,1.575000X1.575000*%
%TD*%
%TA.AperFunction,ComponentPad*%
%ADD18C,1.575000*%
%TD*%
%TA.AperFunction,Conductor*%
%ADD19C,0.250000*%
%TD*%
G04 APERTURE END LIST*
D10*
%TO.P,U3,1,TX0/P0.06*%
%TO.N,1*%
X188598375Y-112388830D03*
%TO.P,U3,2,RX1/P0.08*%
%TO.N,2*%
X186398670Y-111118830D03*
%TO.P,U3,3,GND*%
%TO.N,GND*%
X184198966Y-109848830D03*
%TO.P,U3,4,GND*%
X181999261Y-108578830D03*
%TO.P,U3,5,P0.17*%
%TO.N,3*%
X179799557Y-107308830D03*
%TO.P,U3,6,P0.20*%
%TO.N,4*%
X177599852Y-106038830D03*
%TO.P,U3,7,P0.22*%
%TO.N,5*%
X175400148Y-104768830D03*
%TO.P,U3,8,P0.24*%
%TO.N,6*%
X173200443Y-103498830D03*
%TO.P,U3,9,P1.00*%
%TO.N,7*%
X171000739Y-102228830D03*
%TO.P,U3,10,P0.11*%
%TO.N,8*%
X168801034Y-100958830D03*
%TO.P,U3,11,P1.04*%
%TO.N,9*%
X166601330Y-99688830D03*
%TO.P,U3,12,P1.06*%
%TO.N,10*%
X164401625Y-98418830D03*
%TO.P,U3,13,NFC1/P0.09*%
%TO.N,14*%
X156781625Y-111617058D03*
%TO.P,U3,14,NFC2/P0.10*%
%TO.N,15*%
X158981330Y-112887058D03*
%TO.P,U3,15,P1.11*%
%TO.N,16*%
X161181034Y-114157058D03*
%TO.P,U3,16,P1.13*%
%TO.N,17*%
X163380739Y-115427058D03*
%TO.P,U3,17,P1.15*%
%TO.N,18*%
X165580443Y-116697058D03*
%TO.P,U3,18,AIN0/P0.02*%
%TO.N,19*%
X167780148Y-117967058D03*
%TO.P,U3,19,AIN5/P0.29*%
%TO.N,20*%
X169979852Y-119237058D03*
%TO.P,U3,20,AIN7/P0.31*%
%TO.N,21*%
X172179557Y-120507058D03*
%TO.P,U3,21,VCC*%
%TO.N,3v3*%
X174379261Y-121777058D03*
%TO.P,U3,22,RST*%
%TO.N,RST*%
X176578966Y-123047058D03*
%TO.P,U3,23,GND*%
%TO.N,GND*%
X178778670Y-124317058D03*
%TO.P,U3,24,BATIN/P0.04*%
%TO.N,3v3*%
X180978375Y-125587058D03*
%TO.P,U3,25,B+*%
X183178079Y-126857058D03*
%TO.P,U3,26,B-*%
%TO.N,B-*%
X190798079Y-113658830D03*
%TO.P,U3,31,P1.01*%
%TO.N,11*%
X165991241Y-102269535D03*
%TO.P,U3,32,P1.02*%
%TO.N,12*%
X164721241Y-104469239D03*
%TO.P,U3,33,P1.07*%
%TO.N,13*%
X163451241Y-106668944D03*
%TD*%
D11*
%TO.P,SW3,1*%
%TO.N,3*%
X183375000Y-50317944D03*
D12*
X186225000Y-50417944D03*
%TO.P,SW3,2*%
%TO.N,GND*%
X191225000Y-52517944D03*
D11*
X194075000Y-52517944D03*
%TD*%
%TO.P,SW4,1*%
%TO.N,2*%
X183375000Y-67317944D03*
D12*
X186225000Y-67417944D03*
%TO.P,SW4,2*%
%TO.N,GND*%
X191225000Y-69517944D03*
D11*
X194075000Y-69517944D03*
%TD*%
%TO.P,SW5,1*%
%TO.N,1*%
X183375000Y-84317944D03*
D12*
X186225000Y-84417944D03*
%TO.P,SW5,2*%
%TO.N,GND*%
X191225000Y-86517944D03*
D11*
X194075000Y-86517944D03*
%TD*%
%TO.P,SW6,1*%
%TO.N,6*%
X165375000Y-41817944D03*
D12*
X168225000Y-41917944D03*
%TO.P,SW6,2*%
%TO.N,GND*%
X173225000Y-44017944D03*
D11*
X176075000Y-44017944D03*
%TD*%
%TO.P,SW7,1*%
%TO.N,5*%
X165375000Y-58817944D03*
D12*
X168225000Y-58917944D03*
%TO.P,SW7,2*%
%TO.N,GND*%
X173225000Y-61017944D03*
D11*
X176075000Y-61017944D03*
%TD*%
%TO.P,SW8,1*%
%TO.N,4*%
X165375000Y-75817944D03*
D12*
X168225000Y-75917944D03*
%TO.P,SW8,2*%
%TO.N,GND*%
X173225000Y-78017944D03*
D11*
X176075000Y-78017944D03*
%TD*%
%TO.P,SW9,1*%
%TO.N,9*%
X147375000Y-37567944D03*
D12*
X150225000Y-37667944D03*
%TO.P,SW9,2*%
%TO.N,GND*%
X155225000Y-39767944D03*
D11*
X158075000Y-39767944D03*
%TD*%
%TO.P,SW10,1*%
%TO.N,8*%
X147375000Y-54567944D03*
D12*
X150225000Y-54667944D03*
%TO.P,SW10,2*%
%TO.N,GND*%
X155225000Y-56767944D03*
D11*
X158075000Y-56767944D03*
%TD*%
%TO.P,SW11,1*%
%TO.N,7*%
X147375000Y-71567944D03*
D12*
X150225000Y-71667944D03*
%TO.P,SW11,2*%
%TO.N,GND*%
X155225000Y-73767944D03*
D11*
X158075000Y-73767944D03*
%TD*%
%TO.P,SW13,1*%
%TO.N,GND*%
X129375000Y-41817944D03*
D12*
X132225000Y-41917944D03*
%TO.P,SW13,2*%
%TO.N,12*%
X137225000Y-44017944D03*
D11*
X140075000Y-44017944D03*
%TD*%
%TO.P,SW14,1*%
%TO.N,GND*%
X129375000Y-58817944D03*
D12*
X132225000Y-58917944D03*
%TO.P,SW14,2*%
%TO.N,14*%
X137225000Y-61017944D03*
D11*
X140075000Y-61017944D03*
%TD*%
%TO.P,SW15,1*%
%TO.N,GND*%
X129375000Y-75817944D03*
D12*
X132225000Y-75917944D03*
%TO.P,SW15,2*%
%TO.N,15*%
X137225000Y-78017944D03*
D11*
X140075000Y-78017944D03*
%TD*%
D13*
%TO.P,SW16,1*%
%TO.N,20*%
X135075000Y-113317944D03*
D12*
X132225000Y-113217944D03*
%TO.P,SW16,2*%
%TO.N,GND*%
X127225000Y-111117944D03*
D13*
X124375000Y-111117944D03*
%TD*%
D11*
%TO.P,SW17,1*%
%TO.N,GND*%
X111375000Y-50317944D03*
D12*
X114225000Y-50417944D03*
%TO.P,SW17,2*%
%TO.N,17*%
X119225000Y-52517944D03*
D11*
X122075000Y-52517944D03*
%TD*%
%TO.P,SW18,1*%
%TO.N,GND*%
X111375000Y-67317944D03*
D12*
X114225000Y-67417944D03*
%TO.P,SW18,2*%
%TO.N,16*%
X119225000Y-69517944D03*
D11*
X122075000Y-69517944D03*
%TD*%
%TO.P,SW19,1*%
%TO.N,GND*%
X111375000Y-84317944D03*
D12*
X114225000Y-84417944D03*
%TO.P,SW19,2*%
%TO.N,18*%
X119225000Y-86517944D03*
D11*
X122075000Y-86517944D03*
%TD*%
%TO.P,SW20,1*%
%TO.N,GND*%
X111375000Y-101317944D03*
D12*
X114225000Y-101417944D03*
%TO.P,SW20,2*%
%TO.N,21*%
X119225000Y-103517944D03*
D11*
X122075000Y-103517944D03*
%TD*%
D13*
%TO.P,SW2,1*%
%TO.N,11*%
X189075000Y-45317944D03*
D12*
X186225000Y-45217944D03*
%TO.P,SW2,2*%
%TO.N,GND*%
X181225000Y-43117944D03*
D13*
X178375000Y-43117944D03*
%TD*%
D11*
%TO.P,SW1,1*%
%TO.N,GND*%
X147375000Y-114067944D03*
D12*
X150225000Y-114167944D03*
%TO.P,SW1,2*%
%TO.N,19*%
X155225000Y-116267944D03*
D11*
X158075000Y-116267944D03*
%TD*%
D14*
%TO.P,J3,1,A*%
%TO.N,3v3*%
X116575000Y-45367944D03*
%TO.P,J3,2,B*%
%TO.N,GND*%
X120875000Y-36867944D03*
%TO.P,J3,3,C*%
%TO.N,10*%
X120875000Y-39867944D03*
%TO.P,J3,4,D*%
%TO.N,unconnected-(J3-D-Pad4)*%
X120875000Y-43867944D03*
%TD*%
D11*
%TO.P,SW12,1*%
%TO.N,GND*%
X147375000Y-88567944D03*
D12*
X150225000Y-88667944D03*
%TO.P,SW12,2*%
%TO.N,13*%
X155225000Y-90767944D03*
D11*
X158075000Y-90767944D03*
%TD*%
D15*
%TO.P,S1,1A*%
%TO.N,B-*%
X160615000Y-126337944D03*
D16*
%TO.P,S1,1B*%
%TO.N,Net-(J2-Pad2)*%
X168235000Y-126337944D03*
%TD*%
D17*
%TO.P,J2,1,1*%
%TO.N,3v3*%
X174525000Y-95167944D03*
D18*
%TO.P,J2,2,2*%
%TO.N,Net-(J2-Pad2)*%
X172025000Y-95167944D03*
%TD*%
D19*
%TO.N,Net-(J2-Pad2)*%
X176705000Y-102844340D02*
X176705000Y-105234787D01*
X170325000Y-96464340D02*
X176705000Y-102844340D01*
X164875000Y-85047054D02*
X170325000Y-90497054D01*
X163125000Y-74572844D02*
X163125000Y-79117944D01*
X164875000Y-80867944D02*
X164875000Y-85047054D01*
X168235000Y-126207944D02*
X168235000Y-126337944D01*
X164059900Y-73637944D02*
X163125000Y-74572844D01*
X169295000Y-73637944D02*
X164059900Y-73637944D01*
X163125000Y-79117944D02*
X164875000Y-80867944D01*
X170645000Y-78443148D02*
X170645000Y-74987944D01*
X167192541Y-101771940D02*
X166298545Y-100877944D01*
X170645000Y-74987944D02*
X169295000Y-73637944D01*
X165205000Y-100877944D02*
X164375000Y-101707944D01*
X164375000Y-101707944D02*
X164375000Y-102415066D01*
X172025000Y-79823148D02*
X170645000Y-78443148D01*
X164375000Y-102415066D02*
X173380857Y-111420923D01*
X170325000Y-90497054D02*
X170325000Y-96464340D01*
X172025000Y-95167944D02*
X172025000Y-79823148D01*
X176705000Y-105234787D02*
X175921843Y-106017944D01*
X175921843Y-106017944D02*
X171415000Y-106017944D01*
X171415000Y-106017944D02*
X167192541Y-101795485D01*
X167192541Y-101795485D02*
X167192541Y-101771940D01*
X166298545Y-100877944D02*
X165205000Y-100877944D01*
X173380857Y-111420923D02*
X173380857Y-121062087D01*
X173380857Y-121062087D02*
X168235000Y-126207944D01*
%TO.N,13*%
X163451241Y-106668944D02*
X158075000Y-101292703D01*
X158075000Y-101292703D02*
X158075000Y-90767944D01*
%TO.N,12*%
X164721241Y-104469239D02*
X160325000Y-100072998D01*
X160325000Y-100072998D02*
X160325000Y-89522844D01*
X159995100Y-89192944D02*
X157473604Y-89192944D01*
X143045000Y-46987944D02*
X140075000Y-44017944D01*
X160325000Y-89522844D02*
X159995100Y-89192944D01*
X157473604Y-89192944D02*
X156848604Y-88567944D01*
X156848604Y-88567944D02*
X153635000Y-88567944D01*
X153635000Y-88567944D02*
X143045000Y-77977944D01*
X143045000Y-77977944D02*
X143045000Y-46987944D01*
%TO.N,11*%
X189075000Y-45317944D02*
X184879900Y-45317944D01*
X166619650Y-102897944D02*
X165991241Y-102269535D01*
X184879900Y-45317944D02*
X178835000Y-51362844D01*
X178835000Y-51362844D02*
X178835000Y-106574492D01*
X178835000Y-106574492D02*
X176031548Y-109377944D01*
X176031548Y-109377944D02*
X173750443Y-109377944D01*
X173750443Y-109377944D02*
X167270443Y-102897944D01*
X167270443Y-102897944D02*
X166619650Y-102897944D01*
%TO.N,9*%
X161225000Y-89150052D02*
X161225000Y-89247132D01*
X144675000Y-70136448D02*
X144675000Y-74304340D01*
X152992892Y-80917944D02*
X161225000Y-89150052D01*
X145268504Y-69542944D02*
X144675000Y-70136448D01*
X145125000Y-50117944D02*
X145125000Y-57231548D01*
X144675000Y-74304340D02*
X147055000Y-76684340D01*
X147715000Y-47527944D02*
X145125000Y-50117944D01*
X147715000Y-39157944D02*
X147715000Y-47527944D01*
X147055000Y-76684340D02*
X147055000Y-79104340D01*
X145286396Y-69542944D02*
X145268504Y-69542944D01*
X147315000Y-59421548D02*
X147315000Y-67514340D01*
X145125000Y-57231548D02*
X147315000Y-59421548D01*
X147055000Y-79104340D02*
X148868604Y-80917944D01*
X166601330Y-94623462D02*
X166601330Y-99688830D01*
X147315000Y-67514340D02*
X145286396Y-69542944D01*
X148868604Y-80917944D02*
X152992892Y-80917944D01*
X161225000Y-89247132D02*
X166601330Y-94623462D01*
X147375000Y-37567944D02*
X147375000Y-38817944D01*
X147375000Y-38817944D02*
X147715000Y-39157944D01*
%TO.N,10*%
X144605000Y-49667944D02*
X146355000Y-47917944D01*
X144605000Y-57347944D02*
X144605000Y-49667944D01*
X148682208Y-81367944D02*
X146605000Y-79290736D01*
X144225000Y-69950052D02*
X145082108Y-69092944D01*
X152806496Y-81367944D02*
X148682208Y-81367944D01*
X145100000Y-69092944D02*
X146865000Y-67327944D01*
X164401625Y-98418830D02*
X160775000Y-94792205D01*
X146355000Y-47917944D02*
X146355000Y-41587944D01*
X121045000Y-39697944D02*
X120875000Y-39867944D01*
X146605000Y-79290736D02*
X146605000Y-76870736D01*
X144465000Y-39697944D02*
X121045000Y-39697944D01*
X146605000Y-76870736D02*
X144225000Y-74490736D01*
X146865000Y-59607944D02*
X144605000Y-57347944D01*
X145082108Y-69092944D02*
X145100000Y-69092944D01*
X146355000Y-41587944D02*
X144465000Y-39697944D01*
X160775000Y-89336448D02*
X152806496Y-81367944D01*
X146865000Y-67327944D02*
X146865000Y-59607944D01*
X160775000Y-94792205D02*
X160775000Y-89336448D01*
X144225000Y-74490736D02*
X144225000Y-69950052D01*
%TO.N,16*%
X161181034Y-112917783D02*
X144606195Y-96342944D01*
X122075000Y-80654340D02*
X122075000Y-69517944D01*
X161181034Y-114157058D02*
X161181034Y-112917783D01*
X137763604Y-96342944D02*
X122075000Y-80654340D01*
X144606195Y-96342944D02*
X137763604Y-96342944D01*
%TO.N,17*%
X124705000Y-82647944D02*
X137950000Y-95892944D01*
X163380739Y-114187783D02*
X163380739Y-115427058D01*
X137950000Y-95892944D02*
X145085900Y-95892944D01*
X122075000Y-52517944D02*
X122075000Y-64657944D01*
X145085900Y-95892944D02*
X163380739Y-114187783D01*
X122075000Y-64657944D02*
X124705000Y-67287944D01*
X124705000Y-67287944D02*
X124705000Y-82647944D01*
%TO.N,18*%
X122075000Y-86517944D02*
X146747814Y-111190758D01*
X162022139Y-116697058D02*
X165580443Y-116697058D01*
X156833604Y-114692944D02*
X160018025Y-114692944D01*
X153331418Y-111190758D02*
X156833604Y-114692944D01*
X160018025Y-114692944D02*
X162022139Y-116697058D01*
X146747814Y-111190758D02*
X153331418Y-111190758D01*
%TO.N,19*%
X159774114Y-117967058D02*
X167780148Y-117967058D01*
X158075000Y-116267944D02*
X159774114Y-117967058D01*
%TO.N,20*%
X150566219Y-116307944D02*
X138065000Y-116307944D01*
X156273833Y-118742944D02*
X153001219Y-118742944D01*
X156767947Y-119237058D02*
X156273833Y-118742944D01*
X153001219Y-118742944D02*
X150566219Y-116307944D01*
X138065000Y-116307944D02*
X135075000Y-113317944D01*
X169979852Y-119237058D02*
X156767947Y-119237058D01*
%TO.N,21*%
X130843604Y-116297944D02*
X137963604Y-123417944D01*
X122075000Y-103517944D02*
X122075000Y-112313044D01*
X126059900Y-116297944D02*
X130843604Y-116297944D01*
X137963604Y-123417944D02*
X169268671Y-123417944D01*
X122075000Y-112313044D02*
X126059900Y-116297944D01*
X169268671Y-123417944D02*
X172179557Y-120507058D01*
%TO.N,GND*%
X122200000Y-35542944D02*
X151105204Y-35542944D01*
X119853858Y-41817944D02*
X119800000Y-41764086D01*
X136335000Y-56117944D02*
X129295000Y-49077944D01*
X194075000Y-69517944D02*
X194075000Y-86517944D01*
X174292784Y-128802944D02*
X167213963Y-128802944D01*
X147375000Y-114067944D02*
X144400000Y-111092944D01*
X176075000Y-44017944D02*
X176075000Y-61017944D01*
X121670100Y-99617944D02*
X116025000Y-99617944D01*
X178375000Y-43117944D02*
X176975000Y-43117944D01*
X189078156Y-113607944D02*
X186718805Y-113607944D01*
X120875000Y-36867944D02*
X122200000Y-35542944D01*
X142595000Y-59777944D02*
X138935000Y-56117944D01*
X190348079Y-88319865D02*
X190348079Y-112338021D01*
X116025000Y-99617944D02*
X114225000Y-101417944D01*
X137777208Y-123867944D02*
X137502208Y-123592944D01*
X129375000Y-41817944D02*
X119853858Y-41817944D01*
X169582814Y-118035758D02*
X170477447Y-118035758D01*
X171181152Y-118739463D02*
X171181152Y-119806568D01*
X119800000Y-41764086D02*
X119800000Y-37942944D01*
X176075000Y-61017944D02*
X176075000Y-78017944D01*
X186718805Y-113607944D02*
X184198966Y-111088105D01*
X175025000Y-39767944D02*
X178375000Y-43117944D01*
X151105204Y-35542944D02*
X155330204Y-39767944D01*
X129375000Y-75817944D02*
X133700000Y-80142944D01*
X131453781Y-85147944D02*
X143955000Y-85147944D01*
X192150000Y-86517944D02*
X190348079Y-88319865D01*
X131023781Y-67717944D02*
X137785000Y-67717944D01*
X167213963Y-128802944D02*
X166818963Y-128407944D01*
X142595000Y-62907944D02*
X142595000Y-59777944D01*
X111375000Y-108569163D02*
X111375000Y-101317944D01*
X138935000Y-56117944D02*
X136335000Y-56117944D01*
X158075000Y-39767944D02*
X158075000Y-56767944D01*
X128125000Y-60067944D02*
X128125000Y-64819163D01*
X142325000Y-79263044D02*
X142325000Y-71767944D01*
X129375000Y-75817944D02*
X129105000Y-76087944D01*
X171181152Y-119806568D02*
X168019776Y-122967944D01*
X141445100Y-80142944D02*
X142325000Y-79263044D01*
X146125000Y-94577944D02*
X169582814Y-118035758D01*
X170477447Y-118035758D02*
X171181152Y-118739463D01*
X178375000Y-43117944D02*
X179625000Y-41867944D01*
X146125000Y-89817944D02*
X146125000Y-94577944D01*
X190348079Y-112338021D02*
X189078156Y-113607944D01*
X130581396Y-116747944D02*
X119553781Y-116747944D01*
X194075000Y-52517944D02*
X194075000Y-69517944D01*
X181999261Y-108578830D02*
X183269261Y-109848830D01*
X111325000Y-67367944D02*
X111325000Y-84267944D01*
X190261396Y-41867944D02*
X194075000Y-45681548D01*
X179625000Y-41867944D02*
X190261396Y-41867944D01*
X152682208Y-128407944D02*
X148142208Y-123867944D01*
X133700000Y-80142944D02*
X141445100Y-80142944D01*
X194075000Y-86517944D02*
X192150000Y-86517944D01*
X147375000Y-88567944D02*
X146125000Y-89817944D01*
X129295000Y-49077944D02*
X129295000Y-41897944D01*
X119800000Y-37942944D02*
X120875000Y-36867944D01*
X176975000Y-43117944D02*
X176075000Y-44017944D01*
X124375000Y-102322844D02*
X121670100Y-99617944D01*
X111375000Y-101317944D02*
X111375000Y-84317944D01*
X158075000Y-39767944D02*
X175025000Y-39767944D01*
X155330204Y-39767944D02*
X158075000Y-39767944D01*
X143955000Y-85147944D02*
X147375000Y-88567944D01*
X129105000Y-76087944D02*
X129105000Y-82799163D01*
X184198966Y-111088105D02*
X184198966Y-109848830D01*
X168019776Y-122967944D02*
X138150000Y-122967944D01*
X127250000Y-111092944D02*
X127225000Y-111117944D01*
X129295000Y-41897944D02*
X129375000Y-41817944D01*
X144400000Y-111092944D02*
X127250000Y-111092944D01*
X137426396Y-123592944D02*
X130581396Y-116747944D01*
X129105000Y-82799163D02*
X131453781Y-85147944D01*
X119553781Y-116747944D02*
X111375000Y-108569163D01*
X129375000Y-58817944D02*
X128125000Y-60067944D01*
X128125000Y-64819163D02*
X131023781Y-67717944D01*
X194075000Y-45681548D02*
X194075000Y-52517944D01*
X126300000Y-111117944D02*
X124375000Y-111117944D01*
X124375000Y-111117944D02*
X124375000Y-102322844D01*
X183269261Y-109848830D02*
X184198966Y-109848830D01*
X148142208Y-123867944D02*
X137777208Y-123867944D01*
X166818963Y-128407944D02*
X152682208Y-128407944D01*
X111375000Y-67317944D02*
X111325000Y-67367944D01*
X158075000Y-73767944D02*
X158075000Y-56767944D01*
X111325000Y-84267944D02*
X111375000Y-84317944D01*
X137502208Y-123592944D02*
X137426396Y-123592944D01*
X142325000Y-71767944D02*
X129375000Y-58817944D01*
X111375000Y-50317944D02*
X111375000Y-67317944D01*
X137785000Y-67717944D02*
X142595000Y-62907944D01*
X138150000Y-122967944D02*
X126300000Y-111117944D01*
X178778670Y-124317058D02*
X174292784Y-128802944D01*
%TO.N,3v3*%
X190775000Y-43017944D02*
X185419796Y-43017944D01*
X181908079Y-125587058D02*
X180978375Y-125587058D01*
X168696849Y-127452944D02*
X174372735Y-121777058D01*
X179885000Y-82106042D02*
X179885000Y-81981548D01*
X165772208Y-127957944D02*
X165732208Y-127917944D01*
X179885000Y-81981548D02*
X182850000Y-79016548D01*
X183178079Y-126857058D02*
X181908079Y-125587058D01*
X166948151Y-126627944D02*
X167773151Y-127452944D01*
X174379261Y-114499935D02*
X182050000Y-106829196D01*
X159500000Y-127452944D02*
X159500000Y-125222944D01*
X191835000Y-44077944D02*
X190775000Y-43017944D01*
X185023781Y-53417944D02*
X186230204Y-53417944D01*
X180978375Y-124347783D02*
X179383270Y-122752678D01*
X167400359Y-128352944D02*
X167005359Y-127957944D01*
X182050000Y-106829196D02*
X182050000Y-88729340D01*
X182850000Y-70288044D02*
X181125000Y-68563044D01*
X178572241Y-122752678D02*
X172971975Y-128352944D01*
X165732208Y-127917944D02*
X159965000Y-127917944D01*
X174379261Y-121777058D02*
X174379261Y-114499935D01*
X174372735Y-121777058D02*
X174379261Y-121777058D01*
X181125000Y-66072844D02*
X183325000Y-63872844D01*
X152890812Y-129252944D02*
X177312489Y-129252944D01*
X116575000Y-45367944D02*
X112829900Y-45367944D01*
X182850000Y-79016548D02*
X182850000Y-70288044D01*
X112829900Y-45367944D02*
X106705000Y-51492844D01*
X179870951Y-86550291D02*
X179870951Y-82120091D01*
X186230204Y-53417944D02*
X191835000Y-47813148D01*
X130395000Y-117197944D02*
X137515000Y-124317944D01*
X183325000Y-55116725D02*
X185023781Y-53417944D01*
X183325000Y-63872844D02*
X183325000Y-55116725D01*
X167773151Y-127452944D02*
X168696849Y-127452944D01*
X177312489Y-129252944D02*
X180978375Y-125587058D01*
X181125000Y-68563044D02*
X181125000Y-66072844D01*
X159965000Y-127917944D02*
X159500000Y-127452944D01*
X172971975Y-128352944D02*
X167400359Y-128352944D01*
X185419796Y-43017944D02*
X178385000Y-50052740D01*
X165715000Y-126627944D02*
X166948151Y-126627944D01*
X178385000Y-91307944D02*
X174525000Y-95167944D01*
X191835000Y-47813148D02*
X191835000Y-44077944D01*
X167005359Y-127957944D02*
X165772208Y-127957944D01*
X106705000Y-51492844D02*
X106705000Y-107557944D01*
X179870951Y-82120091D02*
X179885000Y-82106042D01*
X137515000Y-124317944D02*
X147955812Y-124317944D01*
X179383270Y-122752678D02*
X178572241Y-122752678D01*
X164310000Y-125222944D02*
X165715000Y-126627944D01*
X182050000Y-88729340D02*
X179870951Y-86550291D01*
X178385000Y-50052740D02*
X178385000Y-91307944D01*
X180978375Y-125587058D02*
X180978375Y-124347783D01*
X106705000Y-107557944D02*
X116345000Y-117197944D01*
X116345000Y-117197944D02*
X130395000Y-117197944D01*
X147955812Y-124317944D02*
X152890812Y-129252944D01*
X159500000Y-125222944D02*
X164310000Y-125222944D01*
%TO.N,1*%
X183025000Y-84667944D02*
X183375000Y-84317944D01*
X188598375Y-109661319D02*
X183025000Y-104087944D01*
X188598375Y-112388830D02*
X188598375Y-109661319D01*
X183025000Y-104087944D02*
X183025000Y-84667944D01*
%TO.N,3*%
X179400000Y-106909273D02*
X179400000Y-54292944D01*
X179400000Y-54292944D02*
X183375000Y-50317944D01*
X179799557Y-107308830D02*
X179400000Y-106909273D01*
%TO.N,4*%
X165325000Y-84860658D02*
X170775000Y-90310658D01*
X165325000Y-75867944D02*
X165325000Y-84860658D01*
X170775000Y-96277944D02*
X177599852Y-103102796D01*
X165375000Y-75817944D02*
X165325000Y-75867944D01*
X170775000Y-90310658D02*
X170775000Y-96277944D01*
X177599852Y-103102796D02*
X177599852Y-106038830D01*
%TO.N,6*%
X169025000Y-95137944D02*
X169025000Y-96437132D01*
X161285000Y-45907944D02*
X161285000Y-87300864D01*
X161285000Y-87300864D02*
X162575000Y-88590864D01*
X162575000Y-88687944D02*
X169025000Y-95137944D01*
X162575000Y-88590864D02*
X162575000Y-88687944D01*
X169025000Y-96437132D02*
X173200443Y-100612575D01*
X165375000Y-41817944D02*
X161285000Y-45907944D01*
X173200443Y-100612575D02*
X173200443Y-103498830D01*
%TO.N,7*%
X160835000Y-87487260D02*
X162125000Y-88777260D01*
X162125000Y-88777260D02*
X162125000Y-88874340D01*
X168575000Y-95324340D02*
X168575000Y-96623528D01*
X168575000Y-96623528D02*
X171000739Y-99049267D01*
X162125000Y-88874340D02*
X168575000Y-95324340D01*
X171000739Y-99049267D02*
X171000739Y-102228830D01*
X160835000Y-85027944D02*
X160835000Y-87487260D01*
X147375000Y-71567944D02*
X160835000Y-85027944D01*
%TO.N,8*%
X147505000Y-78917944D02*
X147505000Y-76497944D01*
X168801034Y-100958830D02*
X167924734Y-100082530D01*
X145472792Y-69992944D02*
X147765000Y-67700736D01*
X161675000Y-89060736D02*
X161675000Y-88963656D01*
X153179288Y-80467944D02*
X149055000Y-80467944D01*
X167924734Y-100082530D02*
X167924734Y-95310470D01*
X145125000Y-74117944D02*
X145125000Y-70322844D01*
X167924734Y-95310470D02*
X161675000Y-89060736D01*
X147765000Y-67700736D02*
X147765000Y-54957944D01*
X145454900Y-69992944D02*
X145472792Y-69992944D01*
X147765000Y-54957944D02*
X147375000Y-54567944D01*
X161675000Y-88963656D02*
X153179288Y-80467944D01*
X145125000Y-70322844D02*
X145454900Y-69992944D01*
X147505000Y-76497944D02*
X145125000Y-74117944D01*
X149055000Y-80467944D02*
X147505000Y-78917944D01*
%TO.N,2*%
X183375000Y-79127944D02*
X180335000Y-82167944D01*
X182575000Y-88617944D02*
X182575000Y-104274340D01*
X182575000Y-104274340D02*
X186398670Y-108098010D01*
X180335000Y-86377944D02*
X182575000Y-88617944D01*
X183375000Y-67317944D02*
X183375000Y-79127944D01*
X186398670Y-108098010D02*
X186398670Y-111118830D01*
X180335000Y-82167944D02*
X180335000Y-86377944D01*
%TO.N,15*%
X138051167Y-78017944D02*
X124325000Y-64291777D01*
X156371776Y-109038229D02*
X158981330Y-111647783D01*
X118344796Y-50392944D02*
X116925000Y-51812740D01*
X140075000Y-78017944D02*
X138051167Y-78017944D01*
X124325000Y-51272844D02*
X123445100Y-50392944D01*
X150015285Y-109038229D02*
X156371776Y-109038229D01*
X123445100Y-50392944D02*
X118344796Y-50392944D01*
X137577208Y-96792944D02*
X137770000Y-96792944D01*
X158981330Y-111647783D02*
X158981330Y-112887058D01*
X124325000Y-64291777D02*
X124325000Y-51272844D01*
X137770000Y-96792944D02*
X150015285Y-109038229D01*
X116925000Y-76140736D02*
X137577208Y-96792944D01*
X116925000Y-51812740D02*
X116925000Y-76140736D01*
%TO.N,14*%
X118158400Y-49942944D02*
X129000000Y-49942944D01*
X125445000Y-88883044D02*
X125445000Y-85687944D01*
X116475000Y-51626344D02*
X118158400Y-49942944D01*
X116475000Y-76717944D02*
X116475000Y-51626344D01*
X155905325Y-110740758D02*
X147302714Y-110740758D01*
X147302714Y-110740758D02*
X125445000Y-88883044D01*
X129000000Y-49942944D02*
X140075000Y-61017944D01*
X156781625Y-111617058D02*
X155905325Y-110740758D01*
X125445000Y-85687944D02*
X116475000Y-76717944D01*
%TO.N,5*%
X162675000Y-79304340D02*
X162675000Y-72837944D01*
X162675000Y-72837944D02*
X165375000Y-70137944D01*
X169475000Y-90283450D02*
X164078604Y-84887054D01*
X175400148Y-104768830D02*
X175400148Y-102175884D01*
X169475000Y-96250736D02*
X169475000Y-90283450D01*
X165375000Y-70137944D02*
X165375000Y-58817944D01*
X164078604Y-84887054D02*
X164078604Y-80707944D01*
X164078604Y-80707944D02*
X162675000Y-79304340D01*
X175400148Y-102175884D02*
X169475000Y-96250736D01*
%TO.N,B-*%
X176010790Y-121845758D02*
X170388604Y-127467944D01*
X165958604Y-127507944D02*
X164788604Y-126337944D01*
X167191755Y-127507944D02*
X165958604Y-127507944D01*
X190798079Y-113658830D02*
X182611151Y-121845758D01*
X182611151Y-121845758D02*
X176010790Y-121845758D01*
X164788604Y-126337944D02*
X160615000Y-126337944D01*
X169318245Y-127467944D02*
X168883245Y-127902944D01*
X167586755Y-127902944D02*
X167191755Y-127507944D01*
X170388604Y-127467944D02*
X169318245Y-127467944D01*
X168883245Y-127902944D02*
X167586755Y-127902944D01*
%TD*%
M02*
