%TF.GenerationSoftware,KiCad,Pcbnew,7.0.9-7.0.9~ubuntu22.04.1*%
%TF.CreationDate,2025-04-09T21:57:24+03:00*%
%TF.ProjectId,Keeb,4b656562-2e6b-4696-9361-645f70636258,rev?*%
%TF.SameCoordinates,Original*%
%TF.FileFunction,Soldermask,Top*%
%TF.FilePolarity,Negative*%
%FSLAX46Y46*%
G04 Gerber Fmt 4.6, Leading zero omitted, Abs format (unit mm)*
G04 Created by KiCad (PCBNEW 7.0.9-7.0.9~ubuntu22.04.1) date 2025-04-09 21:57:24*
%MOMM*%
%LPD*%
G01*
G04 APERTURE LIST*
G04 Aperture macros list*
%AMRoundRect*
0 Rectangle with rounded corners*
0 $1 Rounding radius*
0 $2 $3 $4 $5 $6 $7 $8 $9 X,Y pos of 4 corners*
0 Add a 4 corners polygon primitive as box body*
4,1,4,$2,$3,$4,$5,$6,$7,$8,$9,$2,$3,0*
0 Add four circle primitives for the rounded corners*
1,1,$1+$1,$2,$3*
1,1,$1+$1,$4,$5*
1,1,$1+$1,$6,$7*
1,1,$1+$1,$8,$9*
0 Add four rect primitives between the rounded corners*
20,1,$1+$1,$2,$3,$4,$5,0*
20,1,$1+$1,$4,$5,$6,$7,0*
20,1,$1+$1,$6,$7,$8,$9,0*
20,1,$1+$1,$8,$9,$2,$3,0*%
G04 Aperture macros list end*
%ADD10C,1.752600*%
%ADD11C,1.200000*%
%ADD12O,1.500000X2.300000*%
%ADD13RoundRect,0.102000X0.790000X-0.790000X0.790000X0.790000X-0.790000X0.790000X-0.790000X-0.790000X0*%
%ADD14C,1.784000*%
%ADD15RoundRect,0.102000X0.787500X0.787500X-0.787500X0.787500X-0.787500X-0.787500X0.787500X-0.787500X0*%
%ADD16C,1.779000*%
%ADD17C,1.900000*%
%ADD18RoundRect,0.250000X1.025000X1.000000X-1.025000X1.000000X-1.025000X-1.000000X1.025000X-1.000000X0*%
%ADD19C,3.450000*%
%ADD20C,3.600000*%
%ADD21RoundRect,0.250000X-1.025000X-1.000000X1.025000X-1.000000X1.025000X1.000000X-1.025000X1.000000X0*%
G04 APERTURE END LIST*
D10*
%TO.C,U3*%
X181178375Y-125547058D03*
X178978670Y-124277058D03*
X176778966Y-123007058D03*
X174579261Y-121737058D03*
X172379557Y-120467058D03*
X170179852Y-119197058D03*
X167980148Y-117927058D03*
X165780443Y-116657058D03*
X163580739Y-115387058D03*
X161381034Y-114117058D03*
X159181330Y-112847058D03*
X156981625Y-111577058D03*
X164601625Y-98378830D03*
X166801330Y-99648830D03*
X169001034Y-100918830D03*
X171200739Y-102188830D03*
X173400443Y-103458830D03*
X175600148Y-104728830D03*
X177799852Y-105998830D03*
X179999557Y-107268830D03*
X182199261Y-108538830D03*
X184398966Y-109808830D03*
X186598670Y-111078830D03*
X188798375Y-112348830D03*
X190998079Y-113618830D03*
X183378079Y-126817058D03*
X161111241Y-111028353D03*
X162381241Y-108828649D03*
X163651241Y-106628944D03*
%TD*%
D11*
%TO.C,J1*%
X118675000Y-35242944D03*
X118675000Y-42242944D03*
D12*
X116525000Y-45542944D03*
X120825000Y-37042944D03*
X120825000Y-40042944D03*
X120825000Y-44042944D03*
%TD*%
D13*
%TO.C,S1*%
X168235000Y-126337944D03*
D14*
X160615000Y-126337944D03*
%TD*%
D15*
%TO.C,J2*%
X172275000Y-95417944D03*
D16*
X174775000Y-95417944D03*
%TD*%
D17*
%TO.C,SW3*%
X191725000Y-56317944D03*
D18*
X189725000Y-50317944D03*
D19*
X186225000Y-56317944D03*
D17*
X180725000Y-56317944D03*
D18*
X177725000Y-52517944D03*
D20*
X186225000Y-50417944D03*
X181225000Y-52517944D03*
%TD*%
D17*
%TO.C,SW4*%
X191725000Y-73317944D03*
D18*
X189725000Y-67317944D03*
D19*
X186225000Y-73317944D03*
D17*
X180725000Y-73317944D03*
D18*
X177725000Y-69517944D03*
D20*
X186225000Y-67417944D03*
X181225000Y-69517944D03*
%TD*%
D17*
%TO.C,SW5*%
X191725000Y-90317944D03*
D18*
X189725000Y-84317944D03*
D19*
X186225000Y-90317944D03*
D17*
X180725000Y-90317944D03*
D18*
X177725000Y-86517944D03*
D20*
X186225000Y-84417944D03*
X181225000Y-86517944D03*
%TD*%
D17*
%TO.C,SW6*%
X173725000Y-47817944D03*
D18*
X171725000Y-41817944D03*
D19*
X168225000Y-47817944D03*
D17*
X162725000Y-47817944D03*
D18*
X159725000Y-44017944D03*
D20*
X168225000Y-41917944D03*
X163225000Y-44017944D03*
%TD*%
D17*
%TO.C,SW7*%
X173725000Y-64817944D03*
D18*
X171725000Y-58817944D03*
D19*
X168225000Y-64817944D03*
D17*
X162725000Y-64817944D03*
D18*
X159725000Y-61017944D03*
D20*
X168225000Y-58917944D03*
X163225000Y-61017944D03*
%TD*%
D17*
%TO.C,SW8*%
X173725000Y-81817944D03*
D18*
X171725000Y-75817944D03*
D19*
X168225000Y-81817944D03*
D17*
X162725000Y-81817944D03*
D18*
X159725000Y-78017944D03*
D20*
X168225000Y-75917944D03*
X163225000Y-78017944D03*
%TD*%
D17*
%TO.C,SW9*%
X155725000Y-43567944D03*
D18*
X153725000Y-37567944D03*
D19*
X150225000Y-43567944D03*
D17*
X144725000Y-43567944D03*
D18*
X141725000Y-39767944D03*
D20*
X150225000Y-37667944D03*
X145225000Y-39767944D03*
%TD*%
D17*
%TO.C,SW10*%
X155725000Y-60567944D03*
D18*
X153725000Y-54567944D03*
D19*
X150225000Y-60567944D03*
D17*
X144725000Y-60567944D03*
D18*
X141725000Y-56767944D03*
D20*
X150225000Y-54667944D03*
X145225000Y-56767944D03*
%TD*%
D17*
%TO.C,SW11*%
X155725000Y-77567944D03*
D18*
X153725000Y-71567944D03*
D19*
X150225000Y-77567944D03*
D17*
X144725000Y-77567944D03*
D18*
X141725000Y-73767944D03*
D20*
X150225000Y-71667944D03*
X145225000Y-73767944D03*
%TD*%
D17*
%TO.C,SW13*%
X137725000Y-47817944D03*
D18*
X135725000Y-41817944D03*
D19*
X132225000Y-47817944D03*
D17*
X126725000Y-47817944D03*
D18*
X123725000Y-44017944D03*
D20*
X132225000Y-41917944D03*
X127225000Y-44017944D03*
%TD*%
D17*
%TO.C,SW14*%
X137725000Y-64817944D03*
D18*
X135725000Y-58817944D03*
D19*
X132225000Y-64817944D03*
D17*
X126725000Y-64817944D03*
D18*
X123725000Y-61017944D03*
D20*
X132225000Y-58917944D03*
X127225000Y-61017944D03*
%TD*%
D17*
%TO.C,SW15*%
X137725000Y-81817944D03*
D18*
X135725000Y-75817944D03*
D19*
X132225000Y-81817944D03*
D17*
X126725000Y-81817944D03*
D18*
X123725000Y-78017944D03*
D20*
X132225000Y-75917944D03*
X127225000Y-78017944D03*
%TD*%
D17*
%TO.C,SW16*%
X137725000Y-107317944D03*
D18*
X135725000Y-101317944D03*
D19*
X132225000Y-107317944D03*
D17*
X126725000Y-107317944D03*
D18*
X123725000Y-103517944D03*
D20*
X132225000Y-101417944D03*
X127225000Y-103517944D03*
%TD*%
D17*
%TO.C,SW17*%
X119725000Y-56317944D03*
D18*
X117725000Y-50317944D03*
D19*
X114225000Y-56317944D03*
D17*
X108725000Y-56317944D03*
D18*
X105725000Y-52517944D03*
D20*
X114225000Y-50417944D03*
X109225000Y-52517944D03*
%TD*%
D17*
%TO.C,SW18*%
X119725000Y-73317944D03*
D18*
X117725000Y-67317944D03*
D19*
X114225000Y-73317944D03*
D17*
X108725000Y-73317944D03*
D18*
X105725000Y-69517944D03*
D20*
X114225000Y-67417944D03*
X109225000Y-69517944D03*
%TD*%
D17*
%TO.C,SW19*%
X119725000Y-90317944D03*
D18*
X117725000Y-84317944D03*
D19*
X114225000Y-90317944D03*
D17*
X108725000Y-90317944D03*
D18*
X105725000Y-86517944D03*
D20*
X114225000Y-84417944D03*
X109225000Y-86517944D03*
%TD*%
D17*
%TO.C,SW20*%
X119725000Y-107317944D03*
D18*
X117725000Y-101317944D03*
D19*
X114225000Y-107317944D03*
D17*
X108725000Y-107317944D03*
D18*
X105725000Y-103517944D03*
D20*
X114225000Y-101417944D03*
X109225000Y-103517944D03*
%TD*%
D17*
%TO.C,SW1*%
X155725000Y-120067944D03*
D18*
X153725000Y-114067944D03*
D19*
X150225000Y-120067944D03*
D17*
X144725000Y-120067944D03*
D18*
X141725000Y-116267944D03*
D20*
X150225000Y-114167944D03*
X145225000Y-116267944D03*
%TD*%
D17*
%TO.C,SW12*%
X180725000Y-39317944D03*
D21*
X182725000Y-45317944D03*
D19*
X186225000Y-39317944D03*
D17*
X191725000Y-39317944D03*
D21*
X194725000Y-43117944D03*
D20*
X186225000Y-45217944D03*
X191225000Y-43117944D03*
%TD*%
D17*
%TO.C,SW2*%
X155725000Y-94567944D03*
D18*
X153725000Y-88567944D03*
D19*
X150225000Y-94567944D03*
D17*
X144725000Y-94567944D03*
D18*
X141725000Y-90767944D03*
D20*
X150225000Y-88667944D03*
X145225000Y-90767944D03*
%TD*%
M02*
