%TF.GenerationSoftware,KiCad,Pcbnew,7.0.9-7.0.9~ubuntu22.04.1*%
%TF.CreationDate,2025-04-09T21:57:12+03:00*%
%TF.ProjectId,Keeb,4b656562-2e6b-4696-9361-645f70636258,rev?*%
%TF.SameCoordinates,Original*%
%TF.FileFunction,Drillmap*%
%TF.FilePolarity,Positive*%
%FSLAX45Y45*%
G04 Gerber Fmt 4.5, Leading zero omitted, Abs format (unit mm)*
G04 Created by KiCad (PCBNEW 7.0.9-7.0.9~ubuntu22.04.1) date 2025-04-09 21:57:12*
%MOMM*%
%LPD*%
G01*
G04 APERTURE LIST*
%ADD10C,0.050000*%
%ADD11C,0.200000*%
%ADD12C,0.120000*%
%ADD13C,0.190000*%
%ADD14C,0.345000*%
G04 APERTURE END LIST*
D10*
X13165124Y-12324546D02*
G75*
G03*
X12784125Y-12229294I-381004J-714374D01*
G01*
X10260000Y-3752044D02*
X10260000Y-11848294D01*
X19880250Y-10133794D02*
X19880250Y-3752044D01*
X13165125Y-12324544D02*
X14593875Y-13038919D01*
X10641000Y-3371044D02*
G75*
G03*
X10260000Y-3752044I0J-381000D01*
G01*
X18070500Y-13181796D02*
G75*
G03*
X18250944Y-13081516I8120J197876D01*
G01*
X14593876Y-13038918D02*
G75*
G03*
X14974875Y-13134169I381004J714378D01*
G01*
X19499250Y-3371044D02*
X10641000Y-3371044D01*
X19832623Y-10324293D02*
G75*
G03*
X19880250Y-10133794I-357183J190503D01*
G01*
X18250944Y-13081516D02*
X19832625Y-10324294D01*
X19880246Y-3752044D02*
G75*
G03*
X19499250Y-3371044I-380996J4D01*
G01*
X18070500Y-13181794D02*
X14974875Y-13134169D01*
X10259996Y-11848294D02*
G75*
G03*
X10641000Y-12229294I381004J4D01*
G01*
X12784125Y-12229294D02*
X10641000Y-12229294D01*
D11*
D12*
X11807500Y-3464294D02*
X11927500Y-3584294D01*
X11927500Y-3464294D02*
X11807500Y-3584294D01*
X11807500Y-4164294D02*
X11927500Y-4284294D01*
X11927500Y-4164294D02*
X11807500Y-4284294D01*
D13*
X10967500Y-5631794D02*
G75*
G03*
X10967500Y-5631794I-95000J0D01*
G01*
X10967500Y-7331794D02*
G75*
G03*
X10967500Y-7331794I-95000J0D01*
G01*
X10967500Y-9031794D02*
G75*
G03*
X10967500Y-9031794I-95000J0D01*
G01*
X10967500Y-10731794D02*
G75*
G03*
X10967500Y-10731794I-95000J0D01*
G01*
X12067500Y-5631794D02*
G75*
G03*
X12067500Y-5631794I-95000J0D01*
G01*
X12067500Y-7331794D02*
G75*
G03*
X12067500Y-7331794I-95000J0D01*
G01*
X12067500Y-9031794D02*
G75*
G03*
X12067500Y-9031794I-95000J0D01*
G01*
X12067500Y-10731794D02*
G75*
G03*
X12067500Y-10731794I-95000J0D01*
G01*
X12767500Y-4781794D02*
G75*
G03*
X12767500Y-4781794I-95000J0D01*
G01*
X12767500Y-6481794D02*
G75*
G03*
X12767500Y-6481794I-95000J0D01*
G01*
X12767500Y-8181794D02*
G75*
G03*
X12767500Y-8181794I-95000J0D01*
G01*
X12767500Y-10731794D02*
G75*
G03*
X12767500Y-10731794I-95000J0D01*
G01*
X13867500Y-4781794D02*
G75*
G03*
X13867500Y-4781794I-95000J0D01*
G01*
X13867500Y-6481794D02*
G75*
G03*
X13867500Y-6481794I-95000J0D01*
G01*
X13867500Y-8181794D02*
G75*
G03*
X13867500Y-8181794I-95000J0D01*
G01*
X13867500Y-10731794D02*
G75*
G03*
X13867500Y-10731794I-95000J0D01*
G01*
X14567500Y-4356794D02*
G75*
G03*
X14567500Y-4356794I-95000J0D01*
G01*
X14567500Y-6056794D02*
G75*
G03*
X14567500Y-6056794I-95000J0D01*
G01*
X14567500Y-7756794D02*
G75*
G03*
X14567500Y-7756794I-95000J0D01*
G01*
X14567500Y-9456794D02*
G75*
G03*
X14567500Y-9456794I-95000J0D01*
G01*
X14567500Y-12006794D02*
G75*
G03*
X14567500Y-12006794I-95000J0D01*
G01*
X15667500Y-4356794D02*
G75*
G03*
X15667500Y-4356794I-95000J0D01*
G01*
X15667500Y-6056794D02*
G75*
G03*
X15667500Y-6056794I-95000J0D01*
G01*
X15667500Y-7756794D02*
G75*
G03*
X15667500Y-7756794I-95000J0D01*
G01*
X15667500Y-9456794D02*
G75*
G03*
X15667500Y-9456794I-95000J0D01*
G01*
X15667500Y-12006794D02*
G75*
G03*
X15667500Y-12006794I-95000J0D01*
G01*
X16367500Y-4781794D02*
G75*
G03*
X16367500Y-4781794I-95000J0D01*
G01*
X16367500Y-6481794D02*
G75*
G03*
X16367500Y-6481794I-95000J0D01*
G01*
X16367500Y-8181794D02*
G75*
G03*
X16367500Y-8181794I-95000J0D01*
G01*
X17467500Y-4781794D02*
G75*
G03*
X17467500Y-4781794I-95000J0D01*
G01*
X17467500Y-6481794D02*
G75*
G03*
X17467500Y-6481794I-95000J0D01*
G01*
X17467500Y-8181794D02*
G75*
G03*
X17467500Y-8181794I-95000J0D01*
G01*
X18167500Y-3931794D02*
G75*
G03*
X18167500Y-3931794I-95000J0D01*
G01*
X18167500Y-5631794D02*
G75*
G03*
X18167500Y-5631794I-95000J0D01*
G01*
X18167500Y-7331794D02*
G75*
G03*
X18167500Y-7331794I-95000J0D01*
G01*
X18167500Y-9031794D02*
G75*
G03*
X18167500Y-9031794I-95000J0D01*
G01*
X19267500Y-3931794D02*
G75*
G03*
X19267500Y-3931794I-95000J0D01*
G01*
X19267500Y-5631794D02*
G75*
G03*
X19267500Y-5631794I-95000J0D01*
G01*
X19267500Y-7331794D02*
G75*
G03*
X19267500Y-7331794I-95000J0D01*
G01*
X19267500Y-9031794D02*
G75*
G03*
X19267500Y-9031794I-95000J0D01*
G01*
D14*
X11422500Y-5459294D02*
X11422500Y-5804294D01*
X11250000Y-5631794D02*
X11595000Y-5631794D01*
X11422500Y-7159294D02*
X11422500Y-7504294D01*
X11250000Y-7331794D02*
X11595000Y-7331794D01*
X11422500Y-8859294D02*
X11422500Y-9204294D01*
X11250000Y-9031794D02*
X11595000Y-9031794D01*
X11422500Y-10559294D02*
X11422500Y-10904294D01*
X11250000Y-10731794D02*
X11595000Y-10731794D01*
X13222500Y-4609294D02*
X13222500Y-4954294D01*
X13050000Y-4781794D02*
X13395000Y-4781794D01*
X13222500Y-6309294D02*
X13222500Y-6654294D01*
X13050000Y-6481794D02*
X13395000Y-6481794D01*
X13222500Y-8009294D02*
X13222500Y-8354294D01*
X13050000Y-8181794D02*
X13395000Y-8181794D01*
X13222500Y-10559294D02*
X13222500Y-10904294D01*
X13050000Y-10731794D02*
X13395000Y-10731794D01*
X15022500Y-4184294D02*
X15022500Y-4529294D01*
X14850000Y-4356794D02*
X15195000Y-4356794D01*
X15022500Y-5884294D02*
X15022500Y-6229294D01*
X14850000Y-6056794D02*
X15195000Y-6056794D01*
X15022500Y-7584294D02*
X15022500Y-7929294D01*
X14850000Y-7756794D02*
X15195000Y-7756794D01*
X15022500Y-9284294D02*
X15022500Y-9629294D01*
X14850000Y-9456794D02*
X15195000Y-9456794D01*
X15022500Y-11834294D02*
X15022500Y-12179294D01*
X14850000Y-12006794D02*
X15195000Y-12006794D01*
X16822500Y-4609294D02*
X16822500Y-4954294D01*
X16650000Y-4781794D02*
X16995000Y-4781794D01*
X16822500Y-6309294D02*
X16822500Y-6654294D01*
X16650000Y-6481794D02*
X16995000Y-6481794D01*
X16822500Y-8009294D02*
X16822500Y-8354294D01*
X16650000Y-8181794D02*
X16995000Y-8181794D01*
X18622500Y-3759294D02*
X18622500Y-4104294D01*
X18450000Y-3931794D02*
X18795000Y-3931794D01*
X18622500Y-5459294D02*
X18622500Y-5804294D01*
X18450000Y-5631794D02*
X18795000Y-5631794D01*
X18622500Y-7159294D02*
X18622500Y-7504294D01*
X18450000Y-7331794D02*
X18795000Y-7331794D01*
X18622500Y-8859294D02*
X18622500Y-9204294D01*
X18450000Y-9031794D02*
X18795000Y-9031794D01*
D11*
X10518277Y-13495946D02*
X10518277Y-13295946D01*
X10518277Y-13295946D02*
X10565896Y-13295946D01*
X10565896Y-13295946D02*
X10594467Y-13305470D01*
X10594467Y-13305470D02*
X10613515Y-13324517D01*
X10613515Y-13324517D02*
X10623039Y-13343565D01*
X10623039Y-13343565D02*
X10632563Y-13381660D01*
X10632563Y-13381660D02*
X10632563Y-13410232D01*
X10632563Y-13410232D02*
X10623039Y-13448327D01*
X10623039Y-13448327D02*
X10613515Y-13467374D01*
X10613515Y-13467374D02*
X10594467Y-13486422D01*
X10594467Y-13486422D02*
X10565896Y-13495946D01*
X10565896Y-13495946D02*
X10518277Y-13495946D01*
X10718277Y-13495946D02*
X10718277Y-13362613D01*
X10718277Y-13400708D02*
X10727801Y-13381660D01*
X10727801Y-13381660D02*
X10737324Y-13372136D01*
X10737324Y-13372136D02*
X10756372Y-13362613D01*
X10756372Y-13362613D02*
X10775420Y-13362613D01*
X10842086Y-13495946D02*
X10842086Y-13362613D01*
X10842086Y-13295946D02*
X10832563Y-13305470D01*
X10832563Y-13305470D02*
X10842086Y-13314994D01*
X10842086Y-13314994D02*
X10851610Y-13305470D01*
X10851610Y-13305470D02*
X10842086Y-13295946D01*
X10842086Y-13295946D02*
X10842086Y-13314994D01*
X10965896Y-13495946D02*
X10946848Y-13486422D01*
X10946848Y-13486422D02*
X10937324Y-13467374D01*
X10937324Y-13467374D02*
X10937324Y-13295946D01*
X11070658Y-13495946D02*
X11051610Y-13486422D01*
X11051610Y-13486422D02*
X11042086Y-13467374D01*
X11042086Y-13467374D02*
X11042086Y-13295946D01*
X11299229Y-13495946D02*
X11299229Y-13295946D01*
X11299229Y-13295946D02*
X11365896Y-13438803D01*
X11365896Y-13438803D02*
X11432562Y-13295946D01*
X11432562Y-13295946D02*
X11432562Y-13495946D01*
X11613515Y-13495946D02*
X11613515Y-13391184D01*
X11613515Y-13391184D02*
X11603991Y-13372136D01*
X11603991Y-13372136D02*
X11584943Y-13362613D01*
X11584943Y-13362613D02*
X11546848Y-13362613D01*
X11546848Y-13362613D02*
X11527801Y-13372136D01*
X11613515Y-13486422D02*
X11594467Y-13495946D01*
X11594467Y-13495946D02*
X11546848Y-13495946D01*
X11546848Y-13495946D02*
X11527801Y-13486422D01*
X11527801Y-13486422D02*
X11518277Y-13467374D01*
X11518277Y-13467374D02*
X11518277Y-13448327D01*
X11518277Y-13448327D02*
X11527801Y-13429279D01*
X11527801Y-13429279D02*
X11546848Y-13419755D01*
X11546848Y-13419755D02*
X11594467Y-13419755D01*
X11594467Y-13419755D02*
X11613515Y-13410232D01*
X11708753Y-13362613D02*
X11708753Y-13562613D01*
X11708753Y-13372136D02*
X11727801Y-13362613D01*
X11727801Y-13362613D02*
X11765896Y-13362613D01*
X11765896Y-13362613D02*
X11784943Y-13372136D01*
X11784943Y-13372136D02*
X11794467Y-13381660D01*
X11794467Y-13381660D02*
X11803991Y-13400708D01*
X11803991Y-13400708D02*
X11803991Y-13457851D01*
X11803991Y-13457851D02*
X11794467Y-13476898D01*
X11794467Y-13476898D02*
X11784943Y-13486422D01*
X11784943Y-13486422D02*
X11765896Y-13495946D01*
X11765896Y-13495946D02*
X11727801Y-13495946D01*
X11727801Y-13495946D02*
X11708753Y-13486422D01*
X11889705Y-13476898D02*
X11899229Y-13486422D01*
X11899229Y-13486422D02*
X11889705Y-13495946D01*
X11889705Y-13495946D02*
X11880182Y-13486422D01*
X11880182Y-13486422D02*
X11889705Y-13476898D01*
X11889705Y-13476898D02*
X11889705Y-13495946D01*
X11889705Y-13372136D02*
X11899229Y-13381660D01*
X11899229Y-13381660D02*
X11889705Y-13391184D01*
X11889705Y-13391184D02*
X11880182Y-13381660D01*
X11880182Y-13381660D02*
X11889705Y-13372136D01*
X11889705Y-13372136D02*
X11889705Y-13391184D01*
D12*
X10137500Y-13764462D02*
X10257500Y-13884462D01*
X10257500Y-13764462D02*
X10137500Y-13884462D01*
D11*
X10623039Y-13915946D02*
X10508753Y-13915946D01*
X10565896Y-13915946D02*
X10565896Y-13715946D01*
X10565896Y-13715946D02*
X10546848Y-13744517D01*
X10546848Y-13744517D02*
X10527801Y-13763565D01*
X10527801Y-13763565D02*
X10508753Y-13773089D01*
X10708753Y-13896898D02*
X10718277Y-13906422D01*
X10718277Y-13906422D02*
X10708753Y-13915946D01*
X10708753Y-13915946D02*
X10699229Y-13906422D01*
X10699229Y-13906422D02*
X10708753Y-13896898D01*
X10708753Y-13896898D02*
X10708753Y-13915946D01*
X10794467Y-13734994D02*
X10803991Y-13725470D01*
X10803991Y-13725470D02*
X10823039Y-13715946D01*
X10823039Y-13715946D02*
X10870658Y-13715946D01*
X10870658Y-13715946D02*
X10889705Y-13725470D01*
X10889705Y-13725470D02*
X10899229Y-13734994D01*
X10899229Y-13734994D02*
X10908753Y-13754041D01*
X10908753Y-13754041D02*
X10908753Y-13773089D01*
X10908753Y-13773089D02*
X10899229Y-13801660D01*
X10899229Y-13801660D02*
X10784944Y-13915946D01*
X10784944Y-13915946D02*
X10908753Y-13915946D01*
X11032563Y-13715946D02*
X11051610Y-13715946D01*
X11051610Y-13715946D02*
X11070658Y-13725470D01*
X11070658Y-13725470D02*
X11080182Y-13734994D01*
X11080182Y-13734994D02*
X11089705Y-13754041D01*
X11089705Y-13754041D02*
X11099229Y-13792136D01*
X11099229Y-13792136D02*
X11099229Y-13839755D01*
X11099229Y-13839755D02*
X11089705Y-13877851D01*
X11089705Y-13877851D02*
X11080182Y-13896898D01*
X11080182Y-13896898D02*
X11070658Y-13906422D01*
X11070658Y-13906422D02*
X11051610Y-13915946D01*
X11051610Y-13915946D02*
X11032563Y-13915946D01*
X11032563Y-13915946D02*
X11013515Y-13906422D01*
X11013515Y-13906422D02*
X11003991Y-13896898D01*
X11003991Y-13896898D02*
X10994467Y-13877851D01*
X10994467Y-13877851D02*
X10984944Y-13839755D01*
X10984944Y-13839755D02*
X10984944Y-13792136D01*
X10984944Y-13792136D02*
X10994467Y-13754041D01*
X10994467Y-13754041D02*
X11003991Y-13734994D01*
X11003991Y-13734994D02*
X11013515Y-13725470D01*
X11013515Y-13725470D02*
X11032563Y-13715946D01*
X11223039Y-13715946D02*
X11242086Y-13715946D01*
X11242086Y-13715946D02*
X11261134Y-13725470D01*
X11261134Y-13725470D02*
X11270658Y-13734994D01*
X11270658Y-13734994D02*
X11280182Y-13754041D01*
X11280182Y-13754041D02*
X11289705Y-13792136D01*
X11289705Y-13792136D02*
X11289705Y-13839755D01*
X11289705Y-13839755D02*
X11280182Y-13877851D01*
X11280182Y-13877851D02*
X11270658Y-13896898D01*
X11270658Y-13896898D02*
X11261134Y-13906422D01*
X11261134Y-13906422D02*
X11242086Y-13915946D01*
X11242086Y-13915946D02*
X11223039Y-13915946D01*
X11223039Y-13915946D02*
X11203991Y-13906422D01*
X11203991Y-13906422D02*
X11194467Y-13896898D01*
X11194467Y-13896898D02*
X11184943Y-13877851D01*
X11184943Y-13877851D02*
X11175420Y-13839755D01*
X11175420Y-13839755D02*
X11175420Y-13792136D01*
X11175420Y-13792136D02*
X11184943Y-13754041D01*
X11184943Y-13754041D02*
X11194467Y-13734994D01*
X11194467Y-13734994D02*
X11203991Y-13725470D01*
X11203991Y-13725470D02*
X11223039Y-13715946D01*
X11375420Y-13915946D02*
X11375420Y-13782613D01*
X11375420Y-13801660D02*
X11384943Y-13792136D01*
X11384943Y-13792136D02*
X11403991Y-13782613D01*
X11403991Y-13782613D02*
X11432563Y-13782613D01*
X11432563Y-13782613D02*
X11451610Y-13792136D01*
X11451610Y-13792136D02*
X11461134Y-13811184D01*
X11461134Y-13811184D02*
X11461134Y-13915946D01*
X11461134Y-13811184D02*
X11470658Y-13792136D01*
X11470658Y-13792136D02*
X11489705Y-13782613D01*
X11489705Y-13782613D02*
X11518277Y-13782613D01*
X11518277Y-13782613D02*
X11537324Y-13792136D01*
X11537324Y-13792136D02*
X11546848Y-13811184D01*
X11546848Y-13811184D02*
X11546848Y-13915946D01*
X11642086Y-13915946D02*
X11642086Y-13782613D01*
X11642086Y-13801660D02*
X11651610Y-13792136D01*
X11651610Y-13792136D02*
X11670658Y-13782613D01*
X11670658Y-13782613D02*
X11699229Y-13782613D01*
X11699229Y-13782613D02*
X11718277Y-13792136D01*
X11718277Y-13792136D02*
X11727801Y-13811184D01*
X11727801Y-13811184D02*
X11727801Y-13915946D01*
X11727801Y-13811184D02*
X11737324Y-13792136D01*
X11737324Y-13792136D02*
X11756372Y-13782613D01*
X11756372Y-13782613D02*
X11784943Y-13782613D01*
X11784943Y-13782613D02*
X11803991Y-13792136D01*
X11803991Y-13792136D02*
X11813515Y-13811184D01*
X11813515Y-13811184D02*
X11813515Y-13915946D01*
X12203991Y-13706422D02*
X12032563Y-13963565D01*
X12461134Y-13715946D02*
X12480182Y-13715946D01*
X12480182Y-13715946D02*
X12499229Y-13725470D01*
X12499229Y-13725470D02*
X12508753Y-13734994D01*
X12508753Y-13734994D02*
X12518277Y-13754041D01*
X12518277Y-13754041D02*
X12527801Y-13792136D01*
X12527801Y-13792136D02*
X12527801Y-13839755D01*
X12527801Y-13839755D02*
X12518277Y-13877851D01*
X12518277Y-13877851D02*
X12508753Y-13896898D01*
X12508753Y-13896898D02*
X12499229Y-13906422D01*
X12499229Y-13906422D02*
X12480182Y-13915946D01*
X12480182Y-13915946D02*
X12461134Y-13915946D01*
X12461134Y-13915946D02*
X12442086Y-13906422D01*
X12442086Y-13906422D02*
X12432563Y-13896898D01*
X12432563Y-13896898D02*
X12423039Y-13877851D01*
X12423039Y-13877851D02*
X12413515Y-13839755D01*
X12413515Y-13839755D02*
X12413515Y-13792136D01*
X12413515Y-13792136D02*
X12423039Y-13754041D01*
X12423039Y-13754041D02*
X12432563Y-13734994D01*
X12432563Y-13734994D02*
X12442086Y-13725470D01*
X12442086Y-13725470D02*
X12461134Y-13715946D01*
X12613515Y-13896898D02*
X12623039Y-13906422D01*
X12623039Y-13906422D02*
X12613515Y-13915946D01*
X12613515Y-13915946D02*
X12603991Y-13906422D01*
X12603991Y-13906422D02*
X12613515Y-13896898D01*
X12613515Y-13896898D02*
X12613515Y-13915946D01*
X12746848Y-13715946D02*
X12765896Y-13715946D01*
X12765896Y-13715946D02*
X12784944Y-13725470D01*
X12784944Y-13725470D02*
X12794467Y-13734994D01*
X12794467Y-13734994D02*
X12803991Y-13754041D01*
X12803991Y-13754041D02*
X12813515Y-13792136D01*
X12813515Y-13792136D02*
X12813515Y-13839755D01*
X12813515Y-13839755D02*
X12803991Y-13877851D01*
X12803991Y-13877851D02*
X12794467Y-13896898D01*
X12794467Y-13896898D02*
X12784944Y-13906422D01*
X12784944Y-13906422D02*
X12765896Y-13915946D01*
X12765896Y-13915946D02*
X12746848Y-13915946D01*
X12746848Y-13915946D02*
X12727801Y-13906422D01*
X12727801Y-13906422D02*
X12718277Y-13896898D01*
X12718277Y-13896898D02*
X12708753Y-13877851D01*
X12708753Y-13877851D02*
X12699229Y-13839755D01*
X12699229Y-13839755D02*
X12699229Y-13792136D01*
X12699229Y-13792136D02*
X12708753Y-13754041D01*
X12708753Y-13754041D02*
X12718277Y-13734994D01*
X12718277Y-13734994D02*
X12727801Y-13725470D01*
X12727801Y-13725470D02*
X12746848Y-13715946D01*
X12984944Y-13782613D02*
X12984944Y-13915946D01*
X12937325Y-13706422D02*
X12889706Y-13849279D01*
X12889706Y-13849279D02*
X13013515Y-13849279D01*
X13070658Y-13715946D02*
X13203991Y-13715946D01*
X13203991Y-13715946D02*
X13118277Y-13915946D01*
X13270658Y-13734994D02*
X13280182Y-13725470D01*
X13280182Y-13725470D02*
X13299229Y-13715946D01*
X13299229Y-13715946D02*
X13346848Y-13715946D01*
X13346848Y-13715946D02*
X13365896Y-13725470D01*
X13365896Y-13725470D02*
X13375420Y-13734994D01*
X13375420Y-13734994D02*
X13384944Y-13754041D01*
X13384944Y-13754041D02*
X13384944Y-13773089D01*
X13384944Y-13773089D02*
X13375420Y-13801660D01*
X13375420Y-13801660D02*
X13261134Y-13915946D01*
X13261134Y-13915946D02*
X13384944Y-13915946D01*
X13461134Y-13715946D02*
X13461134Y-13754041D01*
X13537325Y-13715946D02*
X13537325Y-13754041D01*
X13832563Y-13992136D02*
X13823039Y-13982613D01*
X13823039Y-13982613D02*
X13803991Y-13954041D01*
X13803991Y-13954041D02*
X13794468Y-13934994D01*
X13794468Y-13934994D02*
X13784944Y-13906422D01*
X13784944Y-13906422D02*
X13775420Y-13858803D01*
X13775420Y-13858803D02*
X13775420Y-13820708D01*
X13775420Y-13820708D02*
X13784944Y-13773089D01*
X13784944Y-13773089D02*
X13794468Y-13744517D01*
X13794468Y-13744517D02*
X13803991Y-13725470D01*
X13803991Y-13725470D02*
X13823039Y-13696898D01*
X13823039Y-13696898D02*
X13832563Y-13687374D01*
X13899229Y-13734994D02*
X13908753Y-13725470D01*
X13908753Y-13725470D02*
X13927801Y-13715946D01*
X13927801Y-13715946D02*
X13975420Y-13715946D01*
X13975420Y-13715946D02*
X13994468Y-13725470D01*
X13994468Y-13725470D02*
X14003991Y-13734994D01*
X14003991Y-13734994D02*
X14013515Y-13754041D01*
X14013515Y-13754041D02*
X14013515Y-13773089D01*
X14013515Y-13773089D02*
X14003991Y-13801660D01*
X14003991Y-13801660D02*
X13889706Y-13915946D01*
X13889706Y-13915946D02*
X14013515Y-13915946D01*
X14251610Y-13915946D02*
X14251610Y-13715946D01*
X14337325Y-13915946D02*
X14337325Y-13811184D01*
X14337325Y-13811184D02*
X14327801Y-13792136D01*
X14327801Y-13792136D02*
X14308753Y-13782613D01*
X14308753Y-13782613D02*
X14280182Y-13782613D01*
X14280182Y-13782613D02*
X14261134Y-13792136D01*
X14261134Y-13792136D02*
X14251610Y-13801660D01*
X14461134Y-13915946D02*
X14442087Y-13906422D01*
X14442087Y-13906422D02*
X14432563Y-13896898D01*
X14432563Y-13896898D02*
X14423039Y-13877851D01*
X14423039Y-13877851D02*
X14423039Y-13820708D01*
X14423039Y-13820708D02*
X14432563Y-13801660D01*
X14432563Y-13801660D02*
X14442087Y-13792136D01*
X14442087Y-13792136D02*
X14461134Y-13782613D01*
X14461134Y-13782613D02*
X14489706Y-13782613D01*
X14489706Y-13782613D02*
X14508753Y-13792136D01*
X14508753Y-13792136D02*
X14518277Y-13801660D01*
X14518277Y-13801660D02*
X14527801Y-13820708D01*
X14527801Y-13820708D02*
X14527801Y-13877851D01*
X14527801Y-13877851D02*
X14518277Y-13896898D01*
X14518277Y-13896898D02*
X14508753Y-13906422D01*
X14508753Y-13906422D02*
X14489706Y-13915946D01*
X14489706Y-13915946D02*
X14461134Y-13915946D01*
X14642087Y-13915946D02*
X14623039Y-13906422D01*
X14623039Y-13906422D02*
X14613515Y-13887374D01*
X14613515Y-13887374D02*
X14613515Y-13715946D01*
X14794468Y-13906422D02*
X14775420Y-13915946D01*
X14775420Y-13915946D02*
X14737325Y-13915946D01*
X14737325Y-13915946D02*
X14718277Y-13906422D01*
X14718277Y-13906422D02*
X14708753Y-13887374D01*
X14708753Y-13887374D02*
X14708753Y-13811184D01*
X14708753Y-13811184D02*
X14718277Y-13792136D01*
X14718277Y-13792136D02*
X14737325Y-13782613D01*
X14737325Y-13782613D02*
X14775420Y-13782613D01*
X14775420Y-13782613D02*
X14794468Y-13792136D01*
X14794468Y-13792136D02*
X14803991Y-13811184D01*
X14803991Y-13811184D02*
X14803991Y-13830232D01*
X14803991Y-13830232D02*
X14708753Y-13849279D01*
X14880182Y-13906422D02*
X14899230Y-13915946D01*
X14899230Y-13915946D02*
X14937325Y-13915946D01*
X14937325Y-13915946D02*
X14956372Y-13906422D01*
X14956372Y-13906422D02*
X14965896Y-13887374D01*
X14965896Y-13887374D02*
X14965896Y-13877851D01*
X14965896Y-13877851D02*
X14956372Y-13858803D01*
X14956372Y-13858803D02*
X14937325Y-13849279D01*
X14937325Y-13849279D02*
X14908753Y-13849279D01*
X14908753Y-13849279D02*
X14889706Y-13839755D01*
X14889706Y-13839755D02*
X14880182Y-13820708D01*
X14880182Y-13820708D02*
X14880182Y-13811184D01*
X14880182Y-13811184D02*
X14889706Y-13792136D01*
X14889706Y-13792136D02*
X14908753Y-13782613D01*
X14908753Y-13782613D02*
X14937325Y-13782613D01*
X14937325Y-13782613D02*
X14956372Y-13792136D01*
X15032563Y-13992136D02*
X15042087Y-13982613D01*
X15042087Y-13982613D02*
X15061134Y-13954041D01*
X15061134Y-13954041D02*
X15070658Y-13934994D01*
X15070658Y-13934994D02*
X15080182Y-13906422D01*
X15080182Y-13906422D02*
X15089706Y-13858803D01*
X15089706Y-13858803D02*
X15089706Y-13820708D01*
X15089706Y-13820708D02*
X15080182Y-13773089D01*
X15080182Y-13773089D02*
X15070658Y-13744517D01*
X15070658Y-13744517D02*
X15061134Y-13725470D01*
X15061134Y-13725470D02*
X15042087Y-13696898D01*
X15042087Y-13696898D02*
X15032563Y-13687374D01*
X15394468Y-13992136D02*
X15384944Y-13982613D01*
X15384944Y-13982613D02*
X15365896Y-13954041D01*
X15365896Y-13954041D02*
X15356372Y-13934994D01*
X15356372Y-13934994D02*
X15346849Y-13906422D01*
X15346849Y-13906422D02*
X15337325Y-13858803D01*
X15337325Y-13858803D02*
X15337325Y-13820708D01*
X15337325Y-13820708D02*
X15346849Y-13773089D01*
X15346849Y-13773089D02*
X15356372Y-13744517D01*
X15356372Y-13744517D02*
X15365896Y-13725470D01*
X15365896Y-13725470D02*
X15384944Y-13696898D01*
X15384944Y-13696898D02*
X15394468Y-13687374D01*
X15470658Y-13782613D02*
X15470658Y-13915946D01*
X15470658Y-13801660D02*
X15480182Y-13792136D01*
X15480182Y-13792136D02*
X15499230Y-13782613D01*
X15499230Y-13782613D02*
X15527801Y-13782613D01*
X15527801Y-13782613D02*
X15546849Y-13792136D01*
X15546849Y-13792136D02*
X15556372Y-13811184D01*
X15556372Y-13811184D02*
X15556372Y-13915946D01*
X15680182Y-13915946D02*
X15661134Y-13906422D01*
X15661134Y-13906422D02*
X15651611Y-13896898D01*
X15651611Y-13896898D02*
X15642087Y-13877851D01*
X15642087Y-13877851D02*
X15642087Y-13820708D01*
X15642087Y-13820708D02*
X15651611Y-13801660D01*
X15651611Y-13801660D02*
X15661134Y-13792136D01*
X15661134Y-13792136D02*
X15680182Y-13782613D01*
X15680182Y-13782613D02*
X15708753Y-13782613D01*
X15708753Y-13782613D02*
X15727801Y-13792136D01*
X15727801Y-13792136D02*
X15737325Y-13801660D01*
X15737325Y-13801660D02*
X15746849Y-13820708D01*
X15746849Y-13820708D02*
X15746849Y-13877851D01*
X15746849Y-13877851D02*
X15737325Y-13896898D01*
X15737325Y-13896898D02*
X15727801Y-13906422D01*
X15727801Y-13906422D02*
X15708753Y-13915946D01*
X15708753Y-13915946D02*
X15680182Y-13915946D01*
X15803992Y-13782613D02*
X15880182Y-13782613D01*
X15832563Y-13715946D02*
X15832563Y-13887374D01*
X15832563Y-13887374D02*
X15842087Y-13906422D01*
X15842087Y-13906422D02*
X15861134Y-13915946D01*
X15861134Y-13915946D02*
X15880182Y-13915946D01*
X16099230Y-13782613D02*
X16099230Y-13982613D01*
X16099230Y-13792136D02*
X16118277Y-13782613D01*
X16118277Y-13782613D02*
X16156373Y-13782613D01*
X16156373Y-13782613D02*
X16175420Y-13792136D01*
X16175420Y-13792136D02*
X16184944Y-13801660D01*
X16184944Y-13801660D02*
X16194468Y-13820708D01*
X16194468Y-13820708D02*
X16194468Y-13877851D01*
X16194468Y-13877851D02*
X16184944Y-13896898D01*
X16184944Y-13896898D02*
X16175420Y-13906422D01*
X16175420Y-13906422D02*
X16156373Y-13915946D01*
X16156373Y-13915946D02*
X16118277Y-13915946D01*
X16118277Y-13915946D02*
X16099230Y-13906422D01*
X16308753Y-13915946D02*
X16289706Y-13906422D01*
X16289706Y-13906422D02*
X16280182Y-13887374D01*
X16280182Y-13887374D02*
X16280182Y-13715946D01*
X16470658Y-13915946D02*
X16470658Y-13811184D01*
X16470658Y-13811184D02*
X16461134Y-13792136D01*
X16461134Y-13792136D02*
X16442087Y-13782613D01*
X16442087Y-13782613D02*
X16403992Y-13782613D01*
X16403992Y-13782613D02*
X16384944Y-13792136D01*
X16470658Y-13906422D02*
X16451611Y-13915946D01*
X16451611Y-13915946D02*
X16403992Y-13915946D01*
X16403992Y-13915946D02*
X16384944Y-13906422D01*
X16384944Y-13906422D02*
X16375420Y-13887374D01*
X16375420Y-13887374D02*
X16375420Y-13868327D01*
X16375420Y-13868327D02*
X16384944Y-13849279D01*
X16384944Y-13849279D02*
X16403992Y-13839755D01*
X16403992Y-13839755D02*
X16451611Y-13839755D01*
X16451611Y-13839755D02*
X16470658Y-13830232D01*
X16537325Y-13782613D02*
X16613515Y-13782613D01*
X16565896Y-13715946D02*
X16565896Y-13887374D01*
X16565896Y-13887374D02*
X16575420Y-13906422D01*
X16575420Y-13906422D02*
X16594468Y-13915946D01*
X16594468Y-13915946D02*
X16613515Y-13915946D01*
X16756373Y-13906422D02*
X16737325Y-13915946D01*
X16737325Y-13915946D02*
X16699230Y-13915946D01*
X16699230Y-13915946D02*
X16680182Y-13906422D01*
X16680182Y-13906422D02*
X16670658Y-13887374D01*
X16670658Y-13887374D02*
X16670658Y-13811184D01*
X16670658Y-13811184D02*
X16680182Y-13792136D01*
X16680182Y-13792136D02*
X16699230Y-13782613D01*
X16699230Y-13782613D02*
X16737325Y-13782613D01*
X16737325Y-13782613D02*
X16756373Y-13792136D01*
X16756373Y-13792136D02*
X16765896Y-13811184D01*
X16765896Y-13811184D02*
X16765896Y-13830232D01*
X16765896Y-13830232D02*
X16670658Y-13849279D01*
X16937325Y-13915946D02*
X16937325Y-13715946D01*
X16937325Y-13906422D02*
X16918277Y-13915946D01*
X16918277Y-13915946D02*
X16880182Y-13915946D01*
X16880182Y-13915946D02*
X16861135Y-13906422D01*
X16861135Y-13906422D02*
X16851611Y-13896898D01*
X16851611Y-13896898D02*
X16842087Y-13877851D01*
X16842087Y-13877851D02*
X16842087Y-13820708D01*
X16842087Y-13820708D02*
X16851611Y-13801660D01*
X16851611Y-13801660D02*
X16861135Y-13792136D01*
X16861135Y-13792136D02*
X16880182Y-13782613D01*
X16880182Y-13782613D02*
X16918277Y-13782613D01*
X16918277Y-13782613D02*
X16937325Y-13792136D01*
X17013516Y-13992136D02*
X17023039Y-13982613D01*
X17023039Y-13982613D02*
X17042087Y-13954041D01*
X17042087Y-13954041D02*
X17051611Y-13934994D01*
X17051611Y-13934994D02*
X17061135Y-13906422D01*
X17061135Y-13906422D02*
X17070658Y-13858803D01*
X17070658Y-13858803D02*
X17070658Y-13820708D01*
X17070658Y-13820708D02*
X17061135Y-13773089D01*
X17061135Y-13773089D02*
X17051611Y-13744517D01*
X17051611Y-13744517D02*
X17042087Y-13725470D01*
X17042087Y-13725470D02*
X17023039Y-13696898D01*
X17023039Y-13696898D02*
X17013516Y-13687374D01*
D13*
X10257500Y-14088462D02*
G75*
G03*
X10257500Y-14088462I-95000J0D01*
G01*
D11*
X10623039Y-14179946D02*
X10508753Y-14179946D01*
X10565896Y-14179946D02*
X10565896Y-13979946D01*
X10565896Y-13979946D02*
X10546848Y-14008517D01*
X10546848Y-14008517D02*
X10527801Y-14027565D01*
X10527801Y-14027565D02*
X10508753Y-14037089D01*
X10708753Y-14160898D02*
X10718277Y-14170422D01*
X10718277Y-14170422D02*
X10708753Y-14179946D01*
X10708753Y-14179946D02*
X10699229Y-14170422D01*
X10699229Y-14170422D02*
X10708753Y-14160898D01*
X10708753Y-14160898D02*
X10708753Y-14179946D01*
X10813515Y-14179946D02*
X10851610Y-14179946D01*
X10851610Y-14179946D02*
X10870658Y-14170422D01*
X10870658Y-14170422D02*
X10880182Y-14160898D01*
X10880182Y-14160898D02*
X10899229Y-14132327D01*
X10899229Y-14132327D02*
X10908753Y-14094232D01*
X10908753Y-14094232D02*
X10908753Y-14018041D01*
X10908753Y-14018041D02*
X10899229Y-13998994D01*
X10899229Y-13998994D02*
X10889705Y-13989470D01*
X10889705Y-13989470D02*
X10870658Y-13979946D01*
X10870658Y-13979946D02*
X10832563Y-13979946D01*
X10832563Y-13979946D02*
X10813515Y-13989470D01*
X10813515Y-13989470D02*
X10803991Y-13998994D01*
X10803991Y-13998994D02*
X10794467Y-14018041D01*
X10794467Y-14018041D02*
X10794467Y-14065660D01*
X10794467Y-14065660D02*
X10803991Y-14084708D01*
X10803991Y-14084708D02*
X10813515Y-14094232D01*
X10813515Y-14094232D02*
X10832563Y-14103755D01*
X10832563Y-14103755D02*
X10870658Y-14103755D01*
X10870658Y-14103755D02*
X10889705Y-14094232D01*
X10889705Y-14094232D02*
X10899229Y-14084708D01*
X10899229Y-14084708D02*
X10908753Y-14065660D01*
X11032563Y-13979946D02*
X11051610Y-13979946D01*
X11051610Y-13979946D02*
X11070658Y-13989470D01*
X11070658Y-13989470D02*
X11080182Y-13998994D01*
X11080182Y-13998994D02*
X11089705Y-14018041D01*
X11089705Y-14018041D02*
X11099229Y-14056136D01*
X11099229Y-14056136D02*
X11099229Y-14103755D01*
X11099229Y-14103755D02*
X11089705Y-14141851D01*
X11089705Y-14141851D02*
X11080182Y-14160898D01*
X11080182Y-14160898D02*
X11070658Y-14170422D01*
X11070658Y-14170422D02*
X11051610Y-14179946D01*
X11051610Y-14179946D02*
X11032563Y-14179946D01*
X11032563Y-14179946D02*
X11013515Y-14170422D01*
X11013515Y-14170422D02*
X11003991Y-14160898D01*
X11003991Y-14160898D02*
X10994467Y-14141851D01*
X10994467Y-14141851D02*
X10984944Y-14103755D01*
X10984944Y-14103755D02*
X10984944Y-14056136D01*
X10984944Y-14056136D02*
X10994467Y-14018041D01*
X10994467Y-14018041D02*
X11003991Y-13998994D01*
X11003991Y-13998994D02*
X11013515Y-13989470D01*
X11013515Y-13989470D02*
X11032563Y-13979946D01*
X11223039Y-13979946D02*
X11242086Y-13979946D01*
X11242086Y-13979946D02*
X11261134Y-13989470D01*
X11261134Y-13989470D02*
X11270658Y-13998994D01*
X11270658Y-13998994D02*
X11280182Y-14018041D01*
X11280182Y-14018041D02*
X11289705Y-14056136D01*
X11289705Y-14056136D02*
X11289705Y-14103755D01*
X11289705Y-14103755D02*
X11280182Y-14141851D01*
X11280182Y-14141851D02*
X11270658Y-14160898D01*
X11270658Y-14160898D02*
X11261134Y-14170422D01*
X11261134Y-14170422D02*
X11242086Y-14179946D01*
X11242086Y-14179946D02*
X11223039Y-14179946D01*
X11223039Y-14179946D02*
X11203991Y-14170422D01*
X11203991Y-14170422D02*
X11194467Y-14160898D01*
X11194467Y-14160898D02*
X11184943Y-14141851D01*
X11184943Y-14141851D02*
X11175420Y-14103755D01*
X11175420Y-14103755D02*
X11175420Y-14056136D01*
X11175420Y-14056136D02*
X11184943Y-14018041D01*
X11184943Y-14018041D02*
X11194467Y-13998994D01*
X11194467Y-13998994D02*
X11203991Y-13989470D01*
X11203991Y-13989470D02*
X11223039Y-13979946D01*
X11375420Y-14179946D02*
X11375420Y-14046613D01*
X11375420Y-14065660D02*
X11384943Y-14056136D01*
X11384943Y-14056136D02*
X11403991Y-14046613D01*
X11403991Y-14046613D02*
X11432563Y-14046613D01*
X11432563Y-14046613D02*
X11451610Y-14056136D01*
X11451610Y-14056136D02*
X11461134Y-14075184D01*
X11461134Y-14075184D02*
X11461134Y-14179946D01*
X11461134Y-14075184D02*
X11470658Y-14056136D01*
X11470658Y-14056136D02*
X11489705Y-14046613D01*
X11489705Y-14046613D02*
X11518277Y-14046613D01*
X11518277Y-14046613D02*
X11537324Y-14056136D01*
X11537324Y-14056136D02*
X11546848Y-14075184D01*
X11546848Y-14075184D02*
X11546848Y-14179946D01*
X11642086Y-14179946D02*
X11642086Y-14046613D01*
X11642086Y-14065660D02*
X11651610Y-14056136D01*
X11651610Y-14056136D02*
X11670658Y-14046613D01*
X11670658Y-14046613D02*
X11699229Y-14046613D01*
X11699229Y-14046613D02*
X11718277Y-14056136D01*
X11718277Y-14056136D02*
X11727801Y-14075184D01*
X11727801Y-14075184D02*
X11727801Y-14179946D01*
X11727801Y-14075184D02*
X11737324Y-14056136D01*
X11737324Y-14056136D02*
X11756372Y-14046613D01*
X11756372Y-14046613D02*
X11784943Y-14046613D01*
X11784943Y-14046613D02*
X11803991Y-14056136D01*
X11803991Y-14056136D02*
X11813515Y-14075184D01*
X11813515Y-14075184D02*
X11813515Y-14179946D01*
X12203991Y-13970422D02*
X12032563Y-14227565D01*
X12461134Y-13979946D02*
X12480182Y-13979946D01*
X12480182Y-13979946D02*
X12499229Y-13989470D01*
X12499229Y-13989470D02*
X12508753Y-13998994D01*
X12508753Y-13998994D02*
X12518277Y-14018041D01*
X12518277Y-14018041D02*
X12527801Y-14056136D01*
X12527801Y-14056136D02*
X12527801Y-14103755D01*
X12527801Y-14103755D02*
X12518277Y-14141851D01*
X12518277Y-14141851D02*
X12508753Y-14160898D01*
X12508753Y-14160898D02*
X12499229Y-14170422D01*
X12499229Y-14170422D02*
X12480182Y-14179946D01*
X12480182Y-14179946D02*
X12461134Y-14179946D01*
X12461134Y-14179946D02*
X12442086Y-14170422D01*
X12442086Y-14170422D02*
X12432563Y-14160898D01*
X12432563Y-14160898D02*
X12423039Y-14141851D01*
X12423039Y-14141851D02*
X12413515Y-14103755D01*
X12413515Y-14103755D02*
X12413515Y-14056136D01*
X12413515Y-14056136D02*
X12423039Y-14018041D01*
X12423039Y-14018041D02*
X12432563Y-13998994D01*
X12432563Y-13998994D02*
X12442086Y-13989470D01*
X12442086Y-13989470D02*
X12461134Y-13979946D01*
X12613515Y-14160898D02*
X12623039Y-14170422D01*
X12623039Y-14170422D02*
X12613515Y-14179946D01*
X12613515Y-14179946D02*
X12603991Y-14170422D01*
X12603991Y-14170422D02*
X12613515Y-14160898D01*
X12613515Y-14160898D02*
X12613515Y-14179946D01*
X12746848Y-13979946D02*
X12765896Y-13979946D01*
X12765896Y-13979946D02*
X12784944Y-13989470D01*
X12784944Y-13989470D02*
X12794467Y-13998994D01*
X12794467Y-13998994D02*
X12803991Y-14018041D01*
X12803991Y-14018041D02*
X12813515Y-14056136D01*
X12813515Y-14056136D02*
X12813515Y-14103755D01*
X12813515Y-14103755D02*
X12803991Y-14141851D01*
X12803991Y-14141851D02*
X12794467Y-14160898D01*
X12794467Y-14160898D02*
X12784944Y-14170422D01*
X12784944Y-14170422D02*
X12765896Y-14179946D01*
X12765896Y-14179946D02*
X12746848Y-14179946D01*
X12746848Y-14179946D02*
X12727801Y-14170422D01*
X12727801Y-14170422D02*
X12718277Y-14160898D01*
X12718277Y-14160898D02*
X12708753Y-14141851D01*
X12708753Y-14141851D02*
X12699229Y-14103755D01*
X12699229Y-14103755D02*
X12699229Y-14056136D01*
X12699229Y-14056136D02*
X12708753Y-14018041D01*
X12708753Y-14018041D02*
X12718277Y-13998994D01*
X12718277Y-13998994D02*
X12727801Y-13989470D01*
X12727801Y-13989470D02*
X12746848Y-13979946D01*
X12880182Y-13979946D02*
X13013515Y-13979946D01*
X13013515Y-13979946D02*
X12927801Y-14179946D01*
X13175420Y-14046613D02*
X13175420Y-14179946D01*
X13127801Y-13970422D02*
X13080182Y-14113279D01*
X13080182Y-14113279D02*
X13203991Y-14113279D01*
X13308753Y-14065660D02*
X13289706Y-14056136D01*
X13289706Y-14056136D02*
X13280182Y-14046613D01*
X13280182Y-14046613D02*
X13270658Y-14027565D01*
X13270658Y-14027565D02*
X13270658Y-14018041D01*
X13270658Y-14018041D02*
X13280182Y-13998994D01*
X13280182Y-13998994D02*
X13289706Y-13989470D01*
X13289706Y-13989470D02*
X13308753Y-13979946D01*
X13308753Y-13979946D02*
X13346848Y-13979946D01*
X13346848Y-13979946D02*
X13365896Y-13989470D01*
X13365896Y-13989470D02*
X13375420Y-13998994D01*
X13375420Y-13998994D02*
X13384944Y-14018041D01*
X13384944Y-14018041D02*
X13384944Y-14027565D01*
X13384944Y-14027565D02*
X13375420Y-14046613D01*
X13375420Y-14046613D02*
X13365896Y-14056136D01*
X13365896Y-14056136D02*
X13346848Y-14065660D01*
X13346848Y-14065660D02*
X13308753Y-14065660D01*
X13308753Y-14065660D02*
X13289706Y-14075184D01*
X13289706Y-14075184D02*
X13280182Y-14084708D01*
X13280182Y-14084708D02*
X13270658Y-14103755D01*
X13270658Y-14103755D02*
X13270658Y-14141851D01*
X13270658Y-14141851D02*
X13280182Y-14160898D01*
X13280182Y-14160898D02*
X13289706Y-14170422D01*
X13289706Y-14170422D02*
X13308753Y-14179946D01*
X13308753Y-14179946D02*
X13346848Y-14179946D01*
X13346848Y-14179946D02*
X13365896Y-14170422D01*
X13365896Y-14170422D02*
X13375420Y-14160898D01*
X13375420Y-14160898D02*
X13384944Y-14141851D01*
X13384944Y-14141851D02*
X13384944Y-14103755D01*
X13384944Y-14103755D02*
X13375420Y-14084708D01*
X13375420Y-14084708D02*
X13365896Y-14075184D01*
X13365896Y-14075184D02*
X13346848Y-14065660D01*
X13461134Y-13979946D02*
X13461134Y-14018041D01*
X13537325Y-13979946D02*
X13537325Y-14018041D01*
X13832563Y-14256136D02*
X13823039Y-14246613D01*
X13823039Y-14246613D02*
X13803991Y-14218041D01*
X13803991Y-14218041D02*
X13794468Y-14198994D01*
X13794468Y-14198994D02*
X13784944Y-14170422D01*
X13784944Y-14170422D02*
X13775420Y-14122803D01*
X13775420Y-14122803D02*
X13775420Y-14084708D01*
X13775420Y-14084708D02*
X13784944Y-14037089D01*
X13784944Y-14037089D02*
X13794468Y-14008517D01*
X13794468Y-14008517D02*
X13803991Y-13989470D01*
X13803991Y-13989470D02*
X13823039Y-13960898D01*
X13823039Y-13960898D02*
X13832563Y-13951374D01*
X13994468Y-14046613D02*
X13994468Y-14179946D01*
X13946848Y-13970422D02*
X13899229Y-14113279D01*
X13899229Y-14113279D02*
X14023039Y-14113279D01*
X14137325Y-13979946D02*
X14156372Y-13979946D01*
X14156372Y-13979946D02*
X14175420Y-13989470D01*
X14175420Y-13989470D02*
X14184944Y-13998994D01*
X14184944Y-13998994D02*
X14194468Y-14018041D01*
X14194468Y-14018041D02*
X14203991Y-14056136D01*
X14203991Y-14056136D02*
X14203991Y-14103755D01*
X14203991Y-14103755D02*
X14194468Y-14141851D01*
X14194468Y-14141851D02*
X14184944Y-14160898D01*
X14184944Y-14160898D02*
X14175420Y-14170422D01*
X14175420Y-14170422D02*
X14156372Y-14179946D01*
X14156372Y-14179946D02*
X14137325Y-14179946D01*
X14137325Y-14179946D02*
X14118277Y-14170422D01*
X14118277Y-14170422D02*
X14108753Y-14160898D01*
X14108753Y-14160898D02*
X14099229Y-14141851D01*
X14099229Y-14141851D02*
X14089706Y-14103755D01*
X14089706Y-14103755D02*
X14089706Y-14056136D01*
X14089706Y-14056136D02*
X14099229Y-14018041D01*
X14099229Y-14018041D02*
X14108753Y-13998994D01*
X14108753Y-13998994D02*
X14118277Y-13989470D01*
X14118277Y-13989470D02*
X14137325Y-13979946D01*
X14442087Y-14179946D02*
X14442087Y-13979946D01*
X14527801Y-14179946D02*
X14527801Y-14075184D01*
X14527801Y-14075184D02*
X14518277Y-14056136D01*
X14518277Y-14056136D02*
X14499230Y-14046613D01*
X14499230Y-14046613D02*
X14470658Y-14046613D01*
X14470658Y-14046613D02*
X14451610Y-14056136D01*
X14451610Y-14056136D02*
X14442087Y-14065660D01*
X14651610Y-14179946D02*
X14632563Y-14170422D01*
X14632563Y-14170422D02*
X14623039Y-14160898D01*
X14623039Y-14160898D02*
X14613515Y-14141851D01*
X14613515Y-14141851D02*
X14613515Y-14084708D01*
X14613515Y-14084708D02*
X14623039Y-14065660D01*
X14623039Y-14065660D02*
X14632563Y-14056136D01*
X14632563Y-14056136D02*
X14651610Y-14046613D01*
X14651610Y-14046613D02*
X14680182Y-14046613D01*
X14680182Y-14046613D02*
X14699230Y-14056136D01*
X14699230Y-14056136D02*
X14708753Y-14065660D01*
X14708753Y-14065660D02*
X14718277Y-14084708D01*
X14718277Y-14084708D02*
X14718277Y-14141851D01*
X14718277Y-14141851D02*
X14708753Y-14160898D01*
X14708753Y-14160898D02*
X14699230Y-14170422D01*
X14699230Y-14170422D02*
X14680182Y-14179946D01*
X14680182Y-14179946D02*
X14651610Y-14179946D01*
X14832563Y-14179946D02*
X14813515Y-14170422D01*
X14813515Y-14170422D02*
X14803991Y-14151374D01*
X14803991Y-14151374D02*
X14803991Y-13979946D01*
X14984944Y-14170422D02*
X14965896Y-14179946D01*
X14965896Y-14179946D02*
X14927801Y-14179946D01*
X14927801Y-14179946D02*
X14908753Y-14170422D01*
X14908753Y-14170422D02*
X14899230Y-14151374D01*
X14899230Y-14151374D02*
X14899230Y-14075184D01*
X14899230Y-14075184D02*
X14908753Y-14056136D01*
X14908753Y-14056136D02*
X14927801Y-14046613D01*
X14927801Y-14046613D02*
X14965896Y-14046613D01*
X14965896Y-14046613D02*
X14984944Y-14056136D01*
X14984944Y-14056136D02*
X14994468Y-14075184D01*
X14994468Y-14075184D02*
X14994468Y-14094232D01*
X14994468Y-14094232D02*
X14899230Y-14113279D01*
X15070658Y-14170422D02*
X15089706Y-14179946D01*
X15089706Y-14179946D02*
X15127801Y-14179946D01*
X15127801Y-14179946D02*
X15146849Y-14170422D01*
X15146849Y-14170422D02*
X15156372Y-14151374D01*
X15156372Y-14151374D02*
X15156372Y-14141851D01*
X15156372Y-14141851D02*
X15146849Y-14122803D01*
X15146849Y-14122803D02*
X15127801Y-14113279D01*
X15127801Y-14113279D02*
X15099230Y-14113279D01*
X15099230Y-14113279D02*
X15080182Y-14103755D01*
X15080182Y-14103755D02*
X15070658Y-14084708D01*
X15070658Y-14084708D02*
X15070658Y-14075184D01*
X15070658Y-14075184D02*
X15080182Y-14056136D01*
X15080182Y-14056136D02*
X15099230Y-14046613D01*
X15099230Y-14046613D02*
X15127801Y-14046613D01*
X15127801Y-14046613D02*
X15146849Y-14056136D01*
X15223039Y-14256136D02*
X15232563Y-14246613D01*
X15232563Y-14246613D02*
X15251611Y-14218041D01*
X15251611Y-14218041D02*
X15261134Y-14198994D01*
X15261134Y-14198994D02*
X15270658Y-14170422D01*
X15270658Y-14170422D02*
X15280182Y-14122803D01*
X15280182Y-14122803D02*
X15280182Y-14084708D01*
X15280182Y-14084708D02*
X15270658Y-14037089D01*
X15270658Y-14037089D02*
X15261134Y-14008517D01*
X15261134Y-14008517D02*
X15251611Y-13989470D01*
X15251611Y-13989470D02*
X15232563Y-13960898D01*
X15232563Y-13960898D02*
X15223039Y-13951374D01*
X15584944Y-14256136D02*
X15575420Y-14246613D01*
X15575420Y-14246613D02*
X15556372Y-14218041D01*
X15556372Y-14218041D02*
X15546849Y-14198994D01*
X15546849Y-14198994D02*
X15537325Y-14170422D01*
X15537325Y-14170422D02*
X15527801Y-14122803D01*
X15527801Y-14122803D02*
X15527801Y-14084708D01*
X15527801Y-14084708D02*
X15537325Y-14037089D01*
X15537325Y-14037089D02*
X15546849Y-14008517D01*
X15546849Y-14008517D02*
X15556372Y-13989470D01*
X15556372Y-13989470D02*
X15575420Y-13960898D01*
X15575420Y-13960898D02*
X15584944Y-13951374D01*
X15661134Y-14046613D02*
X15661134Y-14179946D01*
X15661134Y-14065660D02*
X15670658Y-14056136D01*
X15670658Y-14056136D02*
X15689706Y-14046613D01*
X15689706Y-14046613D02*
X15718277Y-14046613D01*
X15718277Y-14046613D02*
X15737325Y-14056136D01*
X15737325Y-14056136D02*
X15746849Y-14075184D01*
X15746849Y-14075184D02*
X15746849Y-14179946D01*
X15870658Y-14179946D02*
X15851611Y-14170422D01*
X15851611Y-14170422D02*
X15842087Y-14160898D01*
X15842087Y-14160898D02*
X15832563Y-14141851D01*
X15832563Y-14141851D02*
X15832563Y-14084708D01*
X15832563Y-14084708D02*
X15842087Y-14065660D01*
X15842087Y-14065660D02*
X15851611Y-14056136D01*
X15851611Y-14056136D02*
X15870658Y-14046613D01*
X15870658Y-14046613D02*
X15899230Y-14046613D01*
X15899230Y-14046613D02*
X15918277Y-14056136D01*
X15918277Y-14056136D02*
X15927801Y-14065660D01*
X15927801Y-14065660D02*
X15937325Y-14084708D01*
X15937325Y-14084708D02*
X15937325Y-14141851D01*
X15937325Y-14141851D02*
X15927801Y-14160898D01*
X15927801Y-14160898D02*
X15918277Y-14170422D01*
X15918277Y-14170422D02*
X15899230Y-14179946D01*
X15899230Y-14179946D02*
X15870658Y-14179946D01*
X15994468Y-14046613D02*
X16070658Y-14046613D01*
X16023039Y-13979946D02*
X16023039Y-14151374D01*
X16023039Y-14151374D02*
X16032563Y-14170422D01*
X16032563Y-14170422D02*
X16051611Y-14179946D01*
X16051611Y-14179946D02*
X16070658Y-14179946D01*
X16289706Y-14046613D02*
X16289706Y-14246613D01*
X16289706Y-14056136D02*
X16308753Y-14046613D01*
X16308753Y-14046613D02*
X16346849Y-14046613D01*
X16346849Y-14046613D02*
X16365896Y-14056136D01*
X16365896Y-14056136D02*
X16375420Y-14065660D01*
X16375420Y-14065660D02*
X16384944Y-14084708D01*
X16384944Y-14084708D02*
X16384944Y-14141851D01*
X16384944Y-14141851D02*
X16375420Y-14160898D01*
X16375420Y-14160898D02*
X16365896Y-14170422D01*
X16365896Y-14170422D02*
X16346849Y-14179946D01*
X16346849Y-14179946D02*
X16308753Y-14179946D01*
X16308753Y-14179946D02*
X16289706Y-14170422D01*
X16499230Y-14179946D02*
X16480182Y-14170422D01*
X16480182Y-14170422D02*
X16470658Y-14151374D01*
X16470658Y-14151374D02*
X16470658Y-13979946D01*
X16661134Y-14179946D02*
X16661134Y-14075184D01*
X16661134Y-14075184D02*
X16651611Y-14056136D01*
X16651611Y-14056136D02*
X16632563Y-14046613D01*
X16632563Y-14046613D02*
X16594468Y-14046613D01*
X16594468Y-14046613D02*
X16575420Y-14056136D01*
X16661134Y-14170422D02*
X16642087Y-14179946D01*
X16642087Y-14179946D02*
X16594468Y-14179946D01*
X16594468Y-14179946D02*
X16575420Y-14170422D01*
X16575420Y-14170422D02*
X16565896Y-14151374D01*
X16565896Y-14151374D02*
X16565896Y-14132327D01*
X16565896Y-14132327D02*
X16575420Y-14113279D01*
X16575420Y-14113279D02*
X16594468Y-14103755D01*
X16594468Y-14103755D02*
X16642087Y-14103755D01*
X16642087Y-14103755D02*
X16661134Y-14094232D01*
X16727801Y-14046613D02*
X16803992Y-14046613D01*
X16756373Y-13979946D02*
X16756373Y-14151374D01*
X16756373Y-14151374D02*
X16765896Y-14170422D01*
X16765896Y-14170422D02*
X16784944Y-14179946D01*
X16784944Y-14179946D02*
X16803992Y-14179946D01*
X16946849Y-14170422D02*
X16927801Y-14179946D01*
X16927801Y-14179946D02*
X16889706Y-14179946D01*
X16889706Y-14179946D02*
X16870658Y-14170422D01*
X16870658Y-14170422D02*
X16861135Y-14151374D01*
X16861135Y-14151374D02*
X16861135Y-14075184D01*
X16861135Y-14075184D02*
X16870658Y-14056136D01*
X16870658Y-14056136D02*
X16889706Y-14046613D01*
X16889706Y-14046613D02*
X16927801Y-14046613D01*
X16927801Y-14046613D02*
X16946849Y-14056136D01*
X16946849Y-14056136D02*
X16956373Y-14075184D01*
X16956373Y-14075184D02*
X16956373Y-14094232D01*
X16956373Y-14094232D02*
X16861135Y-14113279D01*
X17127801Y-14179946D02*
X17127801Y-13979946D01*
X17127801Y-14170422D02*
X17108754Y-14179946D01*
X17108754Y-14179946D02*
X17070658Y-14179946D01*
X17070658Y-14179946D02*
X17051611Y-14170422D01*
X17051611Y-14170422D02*
X17042087Y-14160898D01*
X17042087Y-14160898D02*
X17032563Y-14141851D01*
X17032563Y-14141851D02*
X17032563Y-14084708D01*
X17032563Y-14084708D02*
X17042087Y-14065660D01*
X17042087Y-14065660D02*
X17051611Y-14056136D01*
X17051611Y-14056136D02*
X17070658Y-14046613D01*
X17070658Y-14046613D02*
X17108754Y-14046613D01*
X17108754Y-14046613D02*
X17127801Y-14056136D01*
X17203992Y-14256136D02*
X17213516Y-14246613D01*
X17213516Y-14246613D02*
X17232563Y-14218041D01*
X17232563Y-14218041D02*
X17242087Y-14198994D01*
X17242087Y-14198994D02*
X17251611Y-14170422D01*
X17251611Y-14170422D02*
X17261135Y-14122803D01*
X17261135Y-14122803D02*
X17261135Y-14084708D01*
X17261135Y-14084708D02*
X17251611Y-14037089D01*
X17251611Y-14037089D02*
X17242087Y-14008517D01*
X17242087Y-14008517D02*
X17232563Y-13989470D01*
X17232563Y-13989470D02*
X17213516Y-13960898D01*
X17213516Y-13960898D02*
X17203992Y-13951374D01*
X10157500Y-14298462D02*
X10157500Y-14498462D01*
X10057500Y-14398462D02*
X10257500Y-14398462D01*
X10499229Y-14289946D02*
X10623039Y-14289946D01*
X10623039Y-14289946D02*
X10556372Y-14366136D01*
X10556372Y-14366136D02*
X10584944Y-14366136D01*
X10584944Y-14366136D02*
X10603991Y-14375660D01*
X10603991Y-14375660D02*
X10613515Y-14385184D01*
X10613515Y-14385184D02*
X10623039Y-14404232D01*
X10623039Y-14404232D02*
X10623039Y-14451851D01*
X10623039Y-14451851D02*
X10613515Y-14470898D01*
X10613515Y-14470898D02*
X10603991Y-14480422D01*
X10603991Y-14480422D02*
X10584944Y-14489946D01*
X10584944Y-14489946D02*
X10527801Y-14489946D01*
X10527801Y-14489946D02*
X10508753Y-14480422D01*
X10508753Y-14480422D02*
X10499229Y-14470898D01*
X10708753Y-14470898D02*
X10718277Y-14480422D01*
X10718277Y-14480422D02*
X10708753Y-14489946D01*
X10708753Y-14489946D02*
X10699229Y-14480422D01*
X10699229Y-14480422D02*
X10708753Y-14470898D01*
X10708753Y-14470898D02*
X10708753Y-14489946D01*
X10889705Y-14356613D02*
X10889705Y-14489946D01*
X10842086Y-14280422D02*
X10794467Y-14423279D01*
X10794467Y-14423279D02*
X10918277Y-14423279D01*
X11089705Y-14289946D02*
X10994467Y-14289946D01*
X10994467Y-14289946D02*
X10984944Y-14385184D01*
X10984944Y-14385184D02*
X10994467Y-14375660D01*
X10994467Y-14375660D02*
X11013515Y-14366136D01*
X11013515Y-14366136D02*
X11061134Y-14366136D01*
X11061134Y-14366136D02*
X11080182Y-14375660D01*
X11080182Y-14375660D02*
X11089705Y-14385184D01*
X11089705Y-14385184D02*
X11099229Y-14404232D01*
X11099229Y-14404232D02*
X11099229Y-14451851D01*
X11099229Y-14451851D02*
X11089705Y-14470898D01*
X11089705Y-14470898D02*
X11080182Y-14480422D01*
X11080182Y-14480422D02*
X11061134Y-14489946D01*
X11061134Y-14489946D02*
X11013515Y-14489946D01*
X11013515Y-14489946D02*
X10994467Y-14480422D01*
X10994467Y-14480422D02*
X10984944Y-14470898D01*
X11223039Y-14289946D02*
X11242086Y-14289946D01*
X11242086Y-14289946D02*
X11261134Y-14299470D01*
X11261134Y-14299470D02*
X11270658Y-14308994D01*
X11270658Y-14308994D02*
X11280182Y-14328041D01*
X11280182Y-14328041D02*
X11289705Y-14366136D01*
X11289705Y-14366136D02*
X11289705Y-14413755D01*
X11289705Y-14413755D02*
X11280182Y-14451851D01*
X11280182Y-14451851D02*
X11270658Y-14470898D01*
X11270658Y-14470898D02*
X11261134Y-14480422D01*
X11261134Y-14480422D02*
X11242086Y-14489946D01*
X11242086Y-14489946D02*
X11223039Y-14489946D01*
X11223039Y-14489946D02*
X11203991Y-14480422D01*
X11203991Y-14480422D02*
X11194467Y-14470898D01*
X11194467Y-14470898D02*
X11184943Y-14451851D01*
X11184943Y-14451851D02*
X11175420Y-14413755D01*
X11175420Y-14413755D02*
X11175420Y-14366136D01*
X11175420Y-14366136D02*
X11184943Y-14328041D01*
X11184943Y-14328041D02*
X11194467Y-14308994D01*
X11194467Y-14308994D02*
X11203991Y-14299470D01*
X11203991Y-14299470D02*
X11223039Y-14289946D01*
X11375420Y-14489946D02*
X11375420Y-14356613D01*
X11375420Y-14375660D02*
X11384943Y-14366136D01*
X11384943Y-14366136D02*
X11403991Y-14356613D01*
X11403991Y-14356613D02*
X11432563Y-14356613D01*
X11432563Y-14356613D02*
X11451610Y-14366136D01*
X11451610Y-14366136D02*
X11461134Y-14385184D01*
X11461134Y-14385184D02*
X11461134Y-14489946D01*
X11461134Y-14385184D02*
X11470658Y-14366136D01*
X11470658Y-14366136D02*
X11489705Y-14356613D01*
X11489705Y-14356613D02*
X11518277Y-14356613D01*
X11518277Y-14356613D02*
X11537324Y-14366136D01*
X11537324Y-14366136D02*
X11546848Y-14385184D01*
X11546848Y-14385184D02*
X11546848Y-14489946D01*
X11642086Y-14489946D02*
X11642086Y-14356613D01*
X11642086Y-14375660D02*
X11651610Y-14366136D01*
X11651610Y-14366136D02*
X11670658Y-14356613D01*
X11670658Y-14356613D02*
X11699229Y-14356613D01*
X11699229Y-14356613D02*
X11718277Y-14366136D01*
X11718277Y-14366136D02*
X11727801Y-14385184D01*
X11727801Y-14385184D02*
X11727801Y-14489946D01*
X11727801Y-14385184D02*
X11737324Y-14366136D01*
X11737324Y-14366136D02*
X11756372Y-14356613D01*
X11756372Y-14356613D02*
X11784943Y-14356613D01*
X11784943Y-14356613D02*
X11803991Y-14366136D01*
X11803991Y-14366136D02*
X11813515Y-14385184D01*
X11813515Y-14385184D02*
X11813515Y-14489946D01*
X12203991Y-14280422D02*
X12032563Y-14537565D01*
X12461134Y-14289946D02*
X12480182Y-14289946D01*
X12480182Y-14289946D02*
X12499229Y-14299470D01*
X12499229Y-14299470D02*
X12508753Y-14308994D01*
X12508753Y-14308994D02*
X12518277Y-14328041D01*
X12518277Y-14328041D02*
X12527801Y-14366136D01*
X12527801Y-14366136D02*
X12527801Y-14413755D01*
X12527801Y-14413755D02*
X12518277Y-14451851D01*
X12518277Y-14451851D02*
X12508753Y-14470898D01*
X12508753Y-14470898D02*
X12499229Y-14480422D01*
X12499229Y-14480422D02*
X12480182Y-14489946D01*
X12480182Y-14489946D02*
X12461134Y-14489946D01*
X12461134Y-14489946D02*
X12442086Y-14480422D01*
X12442086Y-14480422D02*
X12432563Y-14470898D01*
X12432563Y-14470898D02*
X12423039Y-14451851D01*
X12423039Y-14451851D02*
X12413515Y-14413755D01*
X12413515Y-14413755D02*
X12413515Y-14366136D01*
X12413515Y-14366136D02*
X12423039Y-14328041D01*
X12423039Y-14328041D02*
X12432563Y-14308994D01*
X12432563Y-14308994D02*
X12442086Y-14299470D01*
X12442086Y-14299470D02*
X12461134Y-14289946D01*
X12613515Y-14470898D02*
X12623039Y-14480422D01*
X12623039Y-14480422D02*
X12613515Y-14489946D01*
X12613515Y-14489946D02*
X12603991Y-14480422D01*
X12603991Y-14480422D02*
X12613515Y-14470898D01*
X12613515Y-14470898D02*
X12613515Y-14489946D01*
X12813515Y-14489946D02*
X12699229Y-14489946D01*
X12756372Y-14489946D02*
X12756372Y-14289946D01*
X12756372Y-14289946D02*
X12737325Y-14318517D01*
X12737325Y-14318517D02*
X12718277Y-14337565D01*
X12718277Y-14337565D02*
X12699229Y-14347089D01*
X12880182Y-14289946D02*
X13003991Y-14289946D01*
X13003991Y-14289946D02*
X12937325Y-14366136D01*
X12937325Y-14366136D02*
X12965896Y-14366136D01*
X12965896Y-14366136D02*
X12984944Y-14375660D01*
X12984944Y-14375660D02*
X12994467Y-14385184D01*
X12994467Y-14385184D02*
X13003991Y-14404232D01*
X13003991Y-14404232D02*
X13003991Y-14451851D01*
X13003991Y-14451851D02*
X12994467Y-14470898D01*
X12994467Y-14470898D02*
X12984944Y-14480422D01*
X12984944Y-14480422D02*
X12965896Y-14489946D01*
X12965896Y-14489946D02*
X12908753Y-14489946D01*
X12908753Y-14489946D02*
X12889706Y-14480422D01*
X12889706Y-14480422D02*
X12880182Y-14470898D01*
X13184944Y-14289946D02*
X13089706Y-14289946D01*
X13089706Y-14289946D02*
X13080182Y-14385184D01*
X13080182Y-14385184D02*
X13089706Y-14375660D01*
X13089706Y-14375660D02*
X13108753Y-14366136D01*
X13108753Y-14366136D02*
X13156372Y-14366136D01*
X13156372Y-14366136D02*
X13175420Y-14375660D01*
X13175420Y-14375660D02*
X13184944Y-14385184D01*
X13184944Y-14385184D02*
X13194467Y-14404232D01*
X13194467Y-14404232D02*
X13194467Y-14451851D01*
X13194467Y-14451851D02*
X13184944Y-14470898D01*
X13184944Y-14470898D02*
X13175420Y-14480422D01*
X13175420Y-14480422D02*
X13156372Y-14489946D01*
X13156372Y-14489946D02*
X13108753Y-14489946D01*
X13108753Y-14489946D02*
X13089706Y-14480422D01*
X13089706Y-14480422D02*
X13080182Y-14470898D01*
X13308753Y-14375660D02*
X13289706Y-14366136D01*
X13289706Y-14366136D02*
X13280182Y-14356613D01*
X13280182Y-14356613D02*
X13270658Y-14337565D01*
X13270658Y-14337565D02*
X13270658Y-14328041D01*
X13270658Y-14328041D02*
X13280182Y-14308994D01*
X13280182Y-14308994D02*
X13289706Y-14299470D01*
X13289706Y-14299470D02*
X13308753Y-14289946D01*
X13308753Y-14289946D02*
X13346848Y-14289946D01*
X13346848Y-14289946D02*
X13365896Y-14299470D01*
X13365896Y-14299470D02*
X13375420Y-14308994D01*
X13375420Y-14308994D02*
X13384944Y-14328041D01*
X13384944Y-14328041D02*
X13384944Y-14337565D01*
X13384944Y-14337565D02*
X13375420Y-14356613D01*
X13375420Y-14356613D02*
X13365896Y-14366136D01*
X13365896Y-14366136D02*
X13346848Y-14375660D01*
X13346848Y-14375660D02*
X13308753Y-14375660D01*
X13308753Y-14375660D02*
X13289706Y-14385184D01*
X13289706Y-14385184D02*
X13280182Y-14394708D01*
X13280182Y-14394708D02*
X13270658Y-14413755D01*
X13270658Y-14413755D02*
X13270658Y-14451851D01*
X13270658Y-14451851D02*
X13280182Y-14470898D01*
X13280182Y-14470898D02*
X13289706Y-14480422D01*
X13289706Y-14480422D02*
X13308753Y-14489946D01*
X13308753Y-14489946D02*
X13346848Y-14489946D01*
X13346848Y-14489946D02*
X13365896Y-14480422D01*
X13365896Y-14480422D02*
X13375420Y-14470898D01*
X13375420Y-14470898D02*
X13384944Y-14451851D01*
X13384944Y-14451851D02*
X13384944Y-14413755D01*
X13384944Y-14413755D02*
X13375420Y-14394708D01*
X13375420Y-14394708D02*
X13365896Y-14385184D01*
X13365896Y-14385184D02*
X13346848Y-14375660D01*
X13461134Y-14289946D02*
X13461134Y-14328041D01*
X13537325Y-14289946D02*
X13537325Y-14328041D01*
X13832563Y-14566136D02*
X13823039Y-14556613D01*
X13823039Y-14556613D02*
X13803991Y-14528041D01*
X13803991Y-14528041D02*
X13794468Y-14508994D01*
X13794468Y-14508994D02*
X13784944Y-14480422D01*
X13784944Y-14480422D02*
X13775420Y-14432803D01*
X13775420Y-14432803D02*
X13775420Y-14394708D01*
X13775420Y-14394708D02*
X13784944Y-14347089D01*
X13784944Y-14347089D02*
X13794468Y-14318517D01*
X13794468Y-14318517D02*
X13803991Y-14299470D01*
X13803991Y-14299470D02*
X13823039Y-14270898D01*
X13823039Y-14270898D02*
X13832563Y-14261374D01*
X13899229Y-14308994D02*
X13908753Y-14299470D01*
X13908753Y-14299470D02*
X13927801Y-14289946D01*
X13927801Y-14289946D02*
X13975420Y-14289946D01*
X13975420Y-14289946D02*
X13994468Y-14299470D01*
X13994468Y-14299470D02*
X14003991Y-14308994D01*
X14003991Y-14308994D02*
X14013515Y-14328041D01*
X14013515Y-14328041D02*
X14013515Y-14347089D01*
X14013515Y-14347089D02*
X14003991Y-14375660D01*
X14003991Y-14375660D02*
X13889706Y-14489946D01*
X13889706Y-14489946D02*
X14013515Y-14489946D01*
X14137325Y-14289946D02*
X14156372Y-14289946D01*
X14156372Y-14289946D02*
X14175420Y-14299470D01*
X14175420Y-14299470D02*
X14184944Y-14308994D01*
X14184944Y-14308994D02*
X14194468Y-14328041D01*
X14194468Y-14328041D02*
X14203991Y-14366136D01*
X14203991Y-14366136D02*
X14203991Y-14413755D01*
X14203991Y-14413755D02*
X14194468Y-14451851D01*
X14194468Y-14451851D02*
X14184944Y-14470898D01*
X14184944Y-14470898D02*
X14175420Y-14480422D01*
X14175420Y-14480422D02*
X14156372Y-14489946D01*
X14156372Y-14489946D02*
X14137325Y-14489946D01*
X14137325Y-14489946D02*
X14118277Y-14480422D01*
X14118277Y-14480422D02*
X14108753Y-14470898D01*
X14108753Y-14470898D02*
X14099229Y-14451851D01*
X14099229Y-14451851D02*
X14089706Y-14413755D01*
X14089706Y-14413755D02*
X14089706Y-14366136D01*
X14089706Y-14366136D02*
X14099229Y-14328041D01*
X14099229Y-14328041D02*
X14108753Y-14308994D01*
X14108753Y-14308994D02*
X14118277Y-14299470D01*
X14118277Y-14299470D02*
X14137325Y-14289946D01*
X14442087Y-14489946D02*
X14442087Y-14289946D01*
X14527801Y-14489946D02*
X14527801Y-14385184D01*
X14527801Y-14385184D02*
X14518277Y-14366136D01*
X14518277Y-14366136D02*
X14499230Y-14356613D01*
X14499230Y-14356613D02*
X14470658Y-14356613D01*
X14470658Y-14356613D02*
X14451610Y-14366136D01*
X14451610Y-14366136D02*
X14442087Y-14375660D01*
X14651610Y-14489946D02*
X14632563Y-14480422D01*
X14632563Y-14480422D02*
X14623039Y-14470898D01*
X14623039Y-14470898D02*
X14613515Y-14451851D01*
X14613515Y-14451851D02*
X14613515Y-14394708D01*
X14613515Y-14394708D02*
X14623039Y-14375660D01*
X14623039Y-14375660D02*
X14632563Y-14366136D01*
X14632563Y-14366136D02*
X14651610Y-14356613D01*
X14651610Y-14356613D02*
X14680182Y-14356613D01*
X14680182Y-14356613D02*
X14699230Y-14366136D01*
X14699230Y-14366136D02*
X14708753Y-14375660D01*
X14708753Y-14375660D02*
X14718277Y-14394708D01*
X14718277Y-14394708D02*
X14718277Y-14451851D01*
X14718277Y-14451851D02*
X14708753Y-14470898D01*
X14708753Y-14470898D02*
X14699230Y-14480422D01*
X14699230Y-14480422D02*
X14680182Y-14489946D01*
X14680182Y-14489946D02*
X14651610Y-14489946D01*
X14832563Y-14489946D02*
X14813515Y-14480422D01*
X14813515Y-14480422D02*
X14803991Y-14461374D01*
X14803991Y-14461374D02*
X14803991Y-14289946D01*
X14984944Y-14480422D02*
X14965896Y-14489946D01*
X14965896Y-14489946D02*
X14927801Y-14489946D01*
X14927801Y-14489946D02*
X14908753Y-14480422D01*
X14908753Y-14480422D02*
X14899230Y-14461374D01*
X14899230Y-14461374D02*
X14899230Y-14385184D01*
X14899230Y-14385184D02*
X14908753Y-14366136D01*
X14908753Y-14366136D02*
X14927801Y-14356613D01*
X14927801Y-14356613D02*
X14965896Y-14356613D01*
X14965896Y-14356613D02*
X14984944Y-14366136D01*
X14984944Y-14366136D02*
X14994468Y-14385184D01*
X14994468Y-14385184D02*
X14994468Y-14404232D01*
X14994468Y-14404232D02*
X14899230Y-14423279D01*
X15070658Y-14480422D02*
X15089706Y-14489946D01*
X15089706Y-14489946D02*
X15127801Y-14489946D01*
X15127801Y-14489946D02*
X15146849Y-14480422D01*
X15146849Y-14480422D02*
X15156372Y-14461374D01*
X15156372Y-14461374D02*
X15156372Y-14451851D01*
X15156372Y-14451851D02*
X15146849Y-14432803D01*
X15146849Y-14432803D02*
X15127801Y-14423279D01*
X15127801Y-14423279D02*
X15099230Y-14423279D01*
X15099230Y-14423279D02*
X15080182Y-14413755D01*
X15080182Y-14413755D02*
X15070658Y-14394708D01*
X15070658Y-14394708D02*
X15070658Y-14385184D01*
X15070658Y-14385184D02*
X15080182Y-14366136D01*
X15080182Y-14366136D02*
X15099230Y-14356613D01*
X15099230Y-14356613D02*
X15127801Y-14356613D01*
X15127801Y-14356613D02*
X15146849Y-14366136D01*
X15223039Y-14566136D02*
X15232563Y-14556613D01*
X15232563Y-14556613D02*
X15251611Y-14528041D01*
X15251611Y-14528041D02*
X15261134Y-14508994D01*
X15261134Y-14508994D02*
X15270658Y-14480422D01*
X15270658Y-14480422D02*
X15280182Y-14432803D01*
X15280182Y-14432803D02*
X15280182Y-14394708D01*
X15280182Y-14394708D02*
X15270658Y-14347089D01*
X15270658Y-14347089D02*
X15261134Y-14318517D01*
X15261134Y-14318517D02*
X15251611Y-14299470D01*
X15251611Y-14299470D02*
X15232563Y-14270898D01*
X15232563Y-14270898D02*
X15223039Y-14261374D01*
X15584944Y-14566136D02*
X15575420Y-14556613D01*
X15575420Y-14556613D02*
X15556372Y-14528041D01*
X15556372Y-14528041D02*
X15546849Y-14508994D01*
X15546849Y-14508994D02*
X15537325Y-14480422D01*
X15537325Y-14480422D02*
X15527801Y-14432803D01*
X15527801Y-14432803D02*
X15527801Y-14394708D01*
X15527801Y-14394708D02*
X15537325Y-14347089D01*
X15537325Y-14347089D02*
X15546849Y-14318517D01*
X15546849Y-14318517D02*
X15556372Y-14299470D01*
X15556372Y-14299470D02*
X15575420Y-14270898D01*
X15575420Y-14270898D02*
X15584944Y-14261374D01*
X15661134Y-14356613D02*
X15661134Y-14489946D01*
X15661134Y-14375660D02*
X15670658Y-14366136D01*
X15670658Y-14366136D02*
X15689706Y-14356613D01*
X15689706Y-14356613D02*
X15718277Y-14356613D01*
X15718277Y-14356613D02*
X15737325Y-14366136D01*
X15737325Y-14366136D02*
X15746849Y-14385184D01*
X15746849Y-14385184D02*
X15746849Y-14489946D01*
X15870658Y-14489946D02*
X15851611Y-14480422D01*
X15851611Y-14480422D02*
X15842087Y-14470898D01*
X15842087Y-14470898D02*
X15832563Y-14451851D01*
X15832563Y-14451851D02*
X15832563Y-14394708D01*
X15832563Y-14394708D02*
X15842087Y-14375660D01*
X15842087Y-14375660D02*
X15851611Y-14366136D01*
X15851611Y-14366136D02*
X15870658Y-14356613D01*
X15870658Y-14356613D02*
X15899230Y-14356613D01*
X15899230Y-14356613D02*
X15918277Y-14366136D01*
X15918277Y-14366136D02*
X15927801Y-14375660D01*
X15927801Y-14375660D02*
X15937325Y-14394708D01*
X15937325Y-14394708D02*
X15937325Y-14451851D01*
X15937325Y-14451851D02*
X15927801Y-14470898D01*
X15927801Y-14470898D02*
X15918277Y-14480422D01*
X15918277Y-14480422D02*
X15899230Y-14489946D01*
X15899230Y-14489946D02*
X15870658Y-14489946D01*
X15994468Y-14356613D02*
X16070658Y-14356613D01*
X16023039Y-14289946D02*
X16023039Y-14461374D01*
X16023039Y-14461374D02*
X16032563Y-14480422D01*
X16032563Y-14480422D02*
X16051611Y-14489946D01*
X16051611Y-14489946D02*
X16070658Y-14489946D01*
X16289706Y-14356613D02*
X16289706Y-14556613D01*
X16289706Y-14366136D02*
X16308753Y-14356613D01*
X16308753Y-14356613D02*
X16346849Y-14356613D01*
X16346849Y-14356613D02*
X16365896Y-14366136D01*
X16365896Y-14366136D02*
X16375420Y-14375660D01*
X16375420Y-14375660D02*
X16384944Y-14394708D01*
X16384944Y-14394708D02*
X16384944Y-14451851D01*
X16384944Y-14451851D02*
X16375420Y-14470898D01*
X16375420Y-14470898D02*
X16365896Y-14480422D01*
X16365896Y-14480422D02*
X16346849Y-14489946D01*
X16346849Y-14489946D02*
X16308753Y-14489946D01*
X16308753Y-14489946D02*
X16289706Y-14480422D01*
X16499230Y-14489946D02*
X16480182Y-14480422D01*
X16480182Y-14480422D02*
X16470658Y-14461374D01*
X16470658Y-14461374D02*
X16470658Y-14289946D01*
X16661134Y-14489946D02*
X16661134Y-14385184D01*
X16661134Y-14385184D02*
X16651611Y-14366136D01*
X16651611Y-14366136D02*
X16632563Y-14356613D01*
X16632563Y-14356613D02*
X16594468Y-14356613D01*
X16594468Y-14356613D02*
X16575420Y-14366136D01*
X16661134Y-14480422D02*
X16642087Y-14489946D01*
X16642087Y-14489946D02*
X16594468Y-14489946D01*
X16594468Y-14489946D02*
X16575420Y-14480422D01*
X16575420Y-14480422D02*
X16565896Y-14461374D01*
X16565896Y-14461374D02*
X16565896Y-14442327D01*
X16565896Y-14442327D02*
X16575420Y-14423279D01*
X16575420Y-14423279D02*
X16594468Y-14413755D01*
X16594468Y-14413755D02*
X16642087Y-14413755D01*
X16642087Y-14413755D02*
X16661134Y-14404232D01*
X16727801Y-14356613D02*
X16803992Y-14356613D01*
X16756373Y-14289946D02*
X16756373Y-14461374D01*
X16756373Y-14461374D02*
X16765896Y-14480422D01*
X16765896Y-14480422D02*
X16784944Y-14489946D01*
X16784944Y-14489946D02*
X16803992Y-14489946D01*
X16946849Y-14480422D02*
X16927801Y-14489946D01*
X16927801Y-14489946D02*
X16889706Y-14489946D01*
X16889706Y-14489946D02*
X16870658Y-14480422D01*
X16870658Y-14480422D02*
X16861135Y-14461374D01*
X16861135Y-14461374D02*
X16861135Y-14385184D01*
X16861135Y-14385184D02*
X16870658Y-14366136D01*
X16870658Y-14366136D02*
X16889706Y-14356613D01*
X16889706Y-14356613D02*
X16927801Y-14356613D01*
X16927801Y-14356613D02*
X16946849Y-14366136D01*
X16946849Y-14366136D02*
X16956373Y-14385184D01*
X16956373Y-14385184D02*
X16956373Y-14404232D01*
X16956373Y-14404232D02*
X16861135Y-14423279D01*
X17127801Y-14489946D02*
X17127801Y-14289946D01*
X17127801Y-14480422D02*
X17108754Y-14489946D01*
X17108754Y-14489946D02*
X17070658Y-14489946D01*
X17070658Y-14489946D02*
X17051611Y-14480422D01*
X17051611Y-14480422D02*
X17042087Y-14470898D01*
X17042087Y-14470898D02*
X17032563Y-14451851D01*
X17032563Y-14451851D02*
X17032563Y-14394708D01*
X17032563Y-14394708D02*
X17042087Y-14375660D01*
X17042087Y-14375660D02*
X17051611Y-14366136D01*
X17051611Y-14366136D02*
X17070658Y-14356613D01*
X17070658Y-14356613D02*
X17108754Y-14356613D01*
X17108754Y-14356613D02*
X17127801Y-14366136D01*
X17203992Y-14566136D02*
X17213516Y-14556613D01*
X17213516Y-14556613D02*
X17232563Y-14528041D01*
X17232563Y-14528041D02*
X17242087Y-14508994D01*
X17242087Y-14508994D02*
X17251611Y-14480422D01*
X17251611Y-14480422D02*
X17261135Y-14432803D01*
X17261135Y-14432803D02*
X17261135Y-14394708D01*
X17261135Y-14394708D02*
X17251611Y-14347089D01*
X17251611Y-14347089D02*
X17242087Y-14318517D01*
X17242087Y-14318517D02*
X17232563Y-14299470D01*
X17232563Y-14299470D02*
X17213516Y-14270898D01*
X17213516Y-14270898D02*
X17203992Y-14261374D01*
M02*
