%TF.GenerationSoftware,KiCad,Pcbnew,7.0.9-7.0.9~ubuntu22.04.1*%
%TF.CreationDate,2025-04-09T21:57:23+03:00*%
%TF.ProjectId,Keeb,4b656562-2e6b-4696-9361-645f70636258,rev?*%
%TF.SameCoordinates,Original*%
%TF.FileFunction,Copper,L1,Top*%
%TF.FilePolarity,Positive*%
%FSLAX46Y46*%
G04 Gerber Fmt 4.6, Leading zero omitted, Abs format (unit mm)*
G04 Created by KiCad (PCBNEW 7.0.9-7.0.9~ubuntu22.04.1) date 2025-04-09 21:57:23*
%MOMM*%
%LPD*%
G01*
G04 APERTURE LIST*
G04 Aperture macros list*
%AMRoundRect*
0 Rectangle with rounded corners*
0 $1 Rounding radius*
0 $2 $3 $4 $5 $6 $7 $8 $9 X,Y pos of 4 corners*
0 Add a 4 corners polygon primitive as box body*
4,1,4,$2,$3,$4,$5,$6,$7,$8,$9,$2,$3,0*
0 Add four circle primitives for the rounded corners*
1,1,$1+$1,$2,$3*
1,1,$1+$1,$4,$5*
1,1,$1+$1,$6,$7*
1,1,$1+$1,$8,$9*
0 Add four rect primitives between the rounded corners*
20,1,$1+$1,$2,$3,$4,$5,0*
20,1,$1+$1,$4,$5,$6,$7,0*
20,1,$1+$1,$6,$7,$8,$9,0*
20,1,$1+$1,$8,$9,$2,$3,0*%
G04 Aperture macros list end*
%TA.AperFunction,ComponentPad*%
%ADD10C,1.752600*%
%TD*%
%TA.AperFunction,ComponentPad*%
%ADD11O,1.500000X2.300000*%
%TD*%
%TA.AperFunction,ComponentPad*%
%ADD12R,1.580000X1.580000*%
%TD*%
%TA.AperFunction,ComponentPad*%
%ADD13C,1.580000*%
%TD*%
%TA.AperFunction,ComponentPad*%
%ADD14R,1.575000X1.575000*%
%TD*%
%TA.AperFunction,ComponentPad*%
%ADD15C,1.575000*%
%TD*%
%TA.AperFunction,SMDPad,CuDef*%
%ADD16RoundRect,0.250000X1.675000X1.000000X-1.675000X1.000000X-1.675000X-1.000000X1.675000X-1.000000X0*%
%TD*%
%TA.AperFunction,ComponentPad*%
%ADD17C,3.600000*%
%TD*%
%TA.AperFunction,SMDPad,CuDef*%
%ADD18RoundRect,0.250000X-1.675000X-1.000000X1.675000X-1.000000X1.675000X1.000000X-1.675000X1.000000X0*%
%TD*%
%TA.AperFunction,Conductor*%
%ADD19C,0.250000*%
%TD*%
G04 APERTURE END LIST*
D10*
%TO.P,U3,1,TX0/P0.06*%
%TO.N,1*%
X181178375Y-125547058D03*
%TO.P,U3,2,RX1/P0.08*%
%TO.N,2*%
X178978670Y-124277058D03*
%TO.P,U3,3,GND*%
%TO.N,GND*%
X176778966Y-123007058D03*
%TO.P,U3,4,GND*%
X174579261Y-121737058D03*
%TO.P,U3,5,P0.17*%
%TO.N,3*%
X172379557Y-120467058D03*
%TO.P,U3,6,P0.20*%
%TO.N,4*%
X170179852Y-119197058D03*
%TO.P,U3,7,P0.22*%
%TO.N,5*%
X167980148Y-117927058D03*
%TO.P,U3,8,P0.24*%
%TO.N,6*%
X165780443Y-116657058D03*
%TO.P,U3,9,P1.00*%
%TO.N,7*%
X163580739Y-115387058D03*
%TO.P,U3,10,P0.11*%
%TO.N,8*%
X161381034Y-114117058D03*
%TO.P,U3,11,P1.04*%
%TO.N,9*%
X159181330Y-112847058D03*
%TO.P,U3,12,P1.06*%
%TO.N,10*%
X156981625Y-111577058D03*
%TO.P,U3,13,NFC1/P0.09*%
%TO.N,14*%
X164601625Y-98378830D03*
%TO.P,U3,14,NFC2/P0.10*%
%TO.N,15*%
X166801330Y-99648830D03*
%TO.P,U3,15,P1.11*%
%TO.N,16*%
X169001034Y-100918830D03*
%TO.P,U3,16,P1.13*%
%TO.N,17*%
X171200739Y-102188830D03*
%TO.P,U3,17,P1.15*%
%TO.N,18*%
X173400443Y-103458830D03*
%TO.P,U3,18,AIN0/P0.02*%
%TO.N,19*%
X175600148Y-104728830D03*
%TO.P,U3,19,AIN5/P0.29*%
%TO.N,20*%
X177799852Y-105998830D03*
%TO.P,U3,20,AIN7/P0.31*%
%TO.N,21*%
X179999557Y-107268830D03*
%TO.P,U3,21,VCC*%
%TO.N,3v3*%
X182199261Y-108538830D03*
%TO.P,U3,22,RST*%
%TO.N,RST*%
X184398966Y-109808830D03*
%TO.P,U3,23,GND*%
%TO.N,GND*%
X186598670Y-111078830D03*
%TO.P,U3,24,BATIN/P0.04*%
%TO.N,3v3*%
X188798375Y-112348830D03*
%TO.P,U3,25,B+*%
%TO.N,unconnected-(U3-B+-Pad25)*%
X190998079Y-113618830D03*
%TO.P,U3,26,B-*%
%TO.N,B-*%
X183378079Y-126817058D03*
%TO.P,U3,31,P1.01*%
%TO.N,11*%
X161111241Y-111028353D03*
%TO.P,U3,32,P1.02*%
%TO.N,12*%
X162381241Y-108828649D03*
%TO.P,U3,33,P1.07*%
%TO.N,13*%
X163651241Y-106628944D03*
%TD*%
D11*
%TO.P,J1,1,A*%
%TO.N,3v3*%
X116525000Y-45542944D03*
%TO.P,J1,2,B*%
%TO.N,GND*%
X120825000Y-37042944D03*
%TO.P,J1,3,C*%
%TO.N,18*%
X120825000Y-40042944D03*
%TO.P,J1,4,D*%
%TO.N,unconnected-(J1-D-Pad4)*%
X120825000Y-44042944D03*
%TD*%
D12*
%TO.P,S1,1A*%
%TO.N,B-*%
X168235000Y-126337944D03*
D13*
%TO.P,S1,1B*%
%TO.N,Net-(J2-Pad2)*%
X160615000Y-126337944D03*
%TD*%
D14*
%TO.P,J2,1,1*%
%TO.N,3v3*%
X172275000Y-95417944D03*
D15*
%TO.P,J2,2,2*%
%TO.N,Net-(J2-Pad2)*%
X174775000Y-95417944D03*
%TD*%
D16*
%TO.P,SW3,1*%
%TO.N,GND*%
X189075000Y-50317944D03*
D17*
X186225000Y-50417944D03*
%TO.P,SW3,2*%
%TO.N,19*%
X181225000Y-52517944D03*
D16*
X178375000Y-52517944D03*
%TD*%
%TO.P,SW4,1*%
%TO.N,GND*%
X189075000Y-67317944D03*
D17*
X186225000Y-67417944D03*
%TO.P,SW4,2*%
%TO.N,20*%
X181225000Y-69517944D03*
D16*
X178375000Y-69517944D03*
%TD*%
%TO.P,SW5,1*%
%TO.N,GND*%
X189075000Y-84317944D03*
D17*
X186225000Y-84417944D03*
%TO.P,SW5,2*%
%TO.N,5*%
X181225000Y-86517944D03*
D16*
X178375000Y-86517944D03*
%TD*%
%TO.P,SW6,1*%
%TO.N,GND*%
X171075000Y-41817944D03*
D17*
X168225000Y-41917944D03*
%TO.P,SW6,2*%
%TO.N,15*%
X163225000Y-44017944D03*
D16*
X160375000Y-44017944D03*
%TD*%
%TO.P,SW7,1*%
%TO.N,GND*%
X171075000Y-58817944D03*
D17*
X168225000Y-58917944D03*
%TO.P,SW7,2*%
%TO.N,16*%
X163225000Y-61017944D03*
D16*
X160375000Y-61017944D03*
%TD*%
%TO.P,SW8,1*%
%TO.N,GND*%
X171075000Y-75817944D03*
D17*
X168225000Y-75917944D03*
%TO.P,SW8,2*%
%TO.N,17*%
X163225000Y-78017944D03*
D16*
X160375000Y-78017944D03*
%TD*%
%TO.P,SW9,1*%
%TO.N,14*%
X153075000Y-37567944D03*
D17*
X150225000Y-37667944D03*
%TO.P,SW9,2*%
%TO.N,GND*%
X145225000Y-39767944D03*
D16*
X142375000Y-39767944D03*
%TD*%
%TO.P,SW10,1*%
%TO.N,6*%
X153075000Y-54567944D03*
D17*
X150225000Y-54667944D03*
%TO.P,SW10,2*%
%TO.N,GND*%
X145225000Y-56767944D03*
D16*
X142375000Y-56767944D03*
%TD*%
%TO.P,SW11,1*%
%TO.N,13*%
X153075000Y-71567944D03*
D17*
X150225000Y-71667944D03*
%TO.P,SW11,2*%
%TO.N,GND*%
X145225000Y-73767944D03*
D16*
X142375000Y-73767944D03*
%TD*%
%TO.P,SW13,1*%
%TO.N,10*%
X135075000Y-41817944D03*
D17*
X132225000Y-41917944D03*
%TO.P,SW13,2*%
%TO.N,GND*%
X127225000Y-44017944D03*
D16*
X124375000Y-44017944D03*
%TD*%
%TO.P,SW14,1*%
%TO.N,12*%
X135075000Y-58817944D03*
D17*
X132225000Y-58917944D03*
%TO.P,SW14,2*%
%TO.N,GND*%
X127225000Y-61017944D03*
D16*
X124375000Y-61017944D03*
%TD*%
%TO.P,SW15,1*%
%TO.N,GND*%
X135075000Y-75817944D03*
D17*
X132225000Y-75917944D03*
%TO.P,SW15,2*%
%TO.N,7*%
X127225000Y-78017944D03*
D16*
X124375000Y-78017944D03*
%TD*%
%TO.P,SW16,1*%
%TO.N,1*%
X135075000Y-101317944D03*
D17*
X132225000Y-101417944D03*
%TO.P,SW16,2*%
%TO.N,GND*%
X127225000Y-103517944D03*
D16*
X124375000Y-103517944D03*
%TD*%
%TO.P,SW17,1*%
%TO.N,9*%
X117075000Y-50317944D03*
D17*
X114225000Y-50417944D03*
%TO.P,SW17,2*%
%TO.N,GND*%
X109225000Y-52517944D03*
D16*
X106375000Y-52517944D03*
%TD*%
%TO.P,SW18,1*%
%TO.N,8*%
X117075000Y-67317944D03*
D17*
X114225000Y-67417944D03*
%TO.P,SW18,2*%
%TO.N,GND*%
X109225000Y-69517944D03*
D16*
X106375000Y-69517944D03*
%TD*%
%TO.P,SW19,1*%
%TO.N,4*%
X117075000Y-84317944D03*
D17*
X114225000Y-84417944D03*
%TO.P,SW19,2*%
%TO.N,GND*%
X109225000Y-86517944D03*
D16*
X106375000Y-86517944D03*
%TD*%
%TO.P,SW20,1*%
%TO.N,3*%
X117075000Y-101317944D03*
D17*
X114225000Y-101417944D03*
%TO.P,SW20,2*%
%TO.N,GND*%
X109225000Y-103517944D03*
D16*
X106375000Y-103517944D03*
%TD*%
%TO.P,SW1,1*%
%TO.N,2*%
X153075000Y-114067944D03*
D17*
X150225000Y-114167944D03*
%TO.P,SW1,2*%
%TO.N,GND*%
X145225000Y-116267944D03*
D16*
X142375000Y-116267944D03*
%TD*%
D18*
%TO.P,SW12,1*%
%TO.N,GND*%
X183375000Y-45317944D03*
D17*
X186225000Y-45217944D03*
%TO.P,SW12,2*%
%TO.N,21*%
X191225000Y-43117944D03*
D18*
X194075000Y-43117944D03*
%TD*%
D16*
%TO.P,SW2,1*%
%TO.N,11*%
X153075000Y-88567944D03*
D17*
X150225000Y-88667944D03*
%TO.P,SW2,2*%
%TO.N,GND*%
X145225000Y-90767944D03*
D16*
X142375000Y-90767944D03*
%TD*%
D19*
%TO.N,GND*%
X166410000Y-119040000D02*
X166498358Y-119128358D01*
X166498358Y-119128358D02*
X168549657Y-119128358D01*
X168549657Y-119128358D02*
X170198015Y-117480000D01*
X170198015Y-117480000D02*
X171561478Y-117480000D01*
X171561478Y-117480000D02*
X174579261Y-120497783D01*
X174579261Y-120497783D02*
X174579261Y-121737058D01*
X135075000Y-75817944D02*
X145092892Y-75817944D01*
X145092892Y-75817944D02*
X162440000Y-93165052D01*
X164809303Y-115857389D02*
X164579143Y-116087549D01*
X162440000Y-93165052D02*
X162440000Y-107116598D01*
X164579143Y-116087549D02*
X164579143Y-117879143D01*
X162440000Y-107116598D02*
X164809303Y-109485901D01*
X164579143Y-117879143D02*
X165828358Y-119128358D01*
X164809303Y-109485901D02*
X164809303Y-115857389D01*
X165828358Y-119128358D02*
X166321642Y-119128358D01*
X166321642Y-119128358D02*
X166410000Y-119040000D01*
%TO.N,6*%
X153410000Y-75540000D02*
X155830000Y-73120000D01*
%TO.N,12*%
X162381241Y-108828649D02*
X161504941Y-107952349D01*
X122454900Y-59442944D02*
X125794796Y-59442944D01*
X161504941Y-92866389D02*
X147531496Y-78892944D01*
X130525000Y-57217944D02*
X132225000Y-58917944D01*
%TO.N,6*%
X153075000Y-66585000D02*
X153075000Y-54567944D01*
%TO.N,12*%
X122125000Y-59772844D02*
X122454900Y-59442944D01*
X128019796Y-57217944D02*
X130525000Y-57217944D01*
%TO.N,13*%
X163651241Y-100194845D02*
X162890000Y-99433604D01*
%TO.N,6*%
X159270000Y-88257208D02*
X159270000Y-85640000D01*
%TO.N,12*%
X122575000Y-62713044D02*
X122125000Y-62263044D01*
%TO.N,13*%
X158820000Y-88443604D02*
X158820000Y-85826396D01*
%TO.N,6*%
X155830000Y-73120000D02*
X155830000Y-69340000D01*
X165780443Y-116657058D02*
X165780443Y-101543387D01*
X155830000Y-69340000D02*
X153075000Y-66585000D01*
X153410000Y-79780000D02*
X153410000Y-75540000D01*
%TO.N,13*%
X158820000Y-85826396D02*
X152960000Y-79966396D01*
%TO.N,6*%
X159270000Y-85640000D02*
X153410000Y-79780000D01*
%TO.N,12*%
X161504941Y-107952349D02*
X161504941Y-92866389D01*
%TO.N,6*%
X165780443Y-101543387D02*
X163340000Y-99102944D01*
%TO.N,12*%
X125794796Y-59442944D02*
X128019796Y-57217944D01*
%TO.N,13*%
X162831241Y-92919897D02*
X162831241Y-92454845D01*
%TO.N,6*%
X163340000Y-92327208D02*
X159270000Y-88257208D01*
%TO.N,13*%
X152960000Y-71682944D02*
X153075000Y-71567944D01*
%TO.N,6*%
X163340000Y-99102944D02*
X163340000Y-92327208D01*
%TO.N,13*%
X152960000Y-79966396D02*
X152960000Y-71682944D01*
X162890000Y-92978656D02*
X162831241Y-92919897D01*
%TO.N,12*%
X132194796Y-78892944D02*
X122575000Y-69273148D01*
%TO.N,13*%
X162831241Y-92454845D02*
X158820000Y-88443604D01*
X163651241Y-106628944D02*
X163651241Y-100194845D01*
%TO.N,12*%
X122125000Y-62263044D02*
X122125000Y-59772844D01*
X122575000Y-69273148D02*
X122575000Y-62713044D01*
%TO.N,13*%
X162890000Y-99433604D02*
X162890000Y-92978656D01*
%TO.N,12*%
X147531496Y-78892944D02*
X132194796Y-78892944D01*
%TO.N,8*%
X121675000Y-79449440D02*
X133443504Y-91217944D01*
X161381034Y-113291034D02*
X161381034Y-114117058D01*
%TO.N,GND*%
X122125000Y-62899440D02*
X121650000Y-62424440D01*
X122125000Y-79263044D02*
X122125000Y-62899440D01*
%TO.N,8*%
X133443504Y-91217944D02*
X139307944Y-91217944D01*
X139307944Y-91217944D02*
X161381034Y-113291034D01*
X121675000Y-71917944D02*
X121675000Y-79449440D01*
X117075000Y-67317944D02*
X121675000Y-71917944D01*
%TO.N,GND*%
X142375000Y-90767944D02*
X133629900Y-90767944D01*
X133629900Y-90767944D02*
X122125000Y-79263044D01*
X121650000Y-62424440D02*
X121650000Y-59580000D01*
X121650000Y-59580000D02*
X124462056Y-56767944D01*
X124462056Y-56767944D02*
X142375000Y-56767944D01*
%TO.N,7*%
X156410000Y-88407844D02*
X147345100Y-79342944D01*
X157320000Y-89526396D02*
X156480000Y-88686396D01*
X156410000Y-88426396D02*
X156410000Y-88407844D01*
X156480000Y-88496396D02*
X156410000Y-88426396D01*
X156480000Y-88686396D02*
X156480000Y-88496396D01*
X147345100Y-79342944D02*
X125700000Y-79342944D01*
X157320000Y-105466303D02*
X157320000Y-89526396D01*
X163580739Y-111727042D02*
X157320000Y-105466303D01*
X163580739Y-115387058D02*
X163580739Y-111727042D01*
X125700000Y-79342944D02*
X124375000Y-78017944D01*
%TO.N,GND*%
X166410000Y-117798311D02*
X166410000Y-119040000D01*
%TO.N,4*%
X141424264Y-101650000D02*
X124092208Y-84317944D01*
X168676467Y-119637944D02*
X162776496Y-119637944D01*
X144788552Y-101650000D02*
X141424264Y-101650000D01*
X169117353Y-119197058D02*
X168676467Y-119637944D01*
X170179852Y-119197058D02*
X169117353Y-119197058D01*
X124092208Y-84317944D02*
X117075000Y-84317944D01*
%TO.N,3*%
X162969214Y-120467058D02*
X172379557Y-120467058D01*
X144602156Y-102100000D02*
X162969214Y-120467058D01*
X137785812Y-98647944D02*
X141237868Y-102100000D01*
%TO.N,4*%
X162776496Y-119637944D02*
X144788552Y-101650000D01*
%TO.N,3*%
X141237868Y-102100000D02*
X144602156Y-102100000D01*
X119745000Y-98647944D02*
X137785812Y-98647944D01*
X117075000Y-101317944D02*
X119745000Y-98647944D01*
%TO.N,GND*%
X169362500Y-97276028D02*
X174601743Y-102515271D01*
X171075000Y-86125000D02*
X169362500Y-87837500D01*
X171075000Y-75817944D02*
X171075000Y-86125000D01*
X167140000Y-111420000D02*
X167140000Y-117068311D01*
X174601743Y-102515271D02*
X174601743Y-103958257D01*
X174601743Y-103958257D02*
X167140000Y-111420000D01*
X167140000Y-117068311D02*
X166410000Y-117798311D01*
X169362500Y-87837500D02*
X169362500Y-97276028D01*
%TO.N,11*%
X161111241Y-111028353D02*
X153125000Y-103042112D01*
X153125000Y-103042112D02*
X153125000Y-88617944D01*
X153125000Y-88617944D02*
X153075000Y-88567944D01*
%TO.N,9*%
X117075000Y-50317944D02*
X111565000Y-55827944D01*
X111800000Y-68451344D02*
X111800000Y-70096396D01*
X111565000Y-55827944D02*
X111565000Y-68216344D01*
X115818275Y-70810000D02*
X116920000Y-71911725D01*
X111565000Y-68216344D02*
X111800000Y-68451344D01*
X141797056Y-100750000D02*
X147853462Y-100750000D01*
X111800000Y-70096396D02*
X112513604Y-70810000D01*
X112513604Y-70810000D02*
X115818275Y-70810000D01*
X116920000Y-71911725D02*
X116920000Y-75872944D01*
X147853462Y-100750000D02*
X159181330Y-112077868D01*
X116920000Y-75872944D02*
X141797056Y-100750000D01*
X159181330Y-112077868D02*
X159181330Y-112847058D01*
%TO.N,10*%
X125830000Y-46220000D02*
X130010000Y-46220000D01*
X112697056Y-76000000D02*
X111325000Y-74627944D01*
X111730000Y-49160000D02*
X113082056Y-47807944D01*
X113082056Y-47807944D02*
X124242056Y-47807944D01*
X130010000Y-46220000D02*
X134412056Y-41817944D01*
X111730000Y-53192944D02*
X111730000Y-49160000D01*
X111325000Y-74627944D02*
X111325000Y-70423148D01*
X116410660Y-76000000D02*
X112697056Y-76000000D01*
X134412056Y-41817944D02*
X135075000Y-41817944D01*
X111115000Y-68402740D02*
X111115000Y-53807944D01*
X141610660Y-101200000D02*
X116410660Y-76000000D01*
X111325000Y-70423148D02*
X111350000Y-70398148D01*
X124242056Y-47807944D02*
X125830000Y-46220000D01*
X111350000Y-68637740D02*
X111115000Y-68402740D01*
X146604567Y-101200000D02*
X141610660Y-101200000D01*
X111350000Y-70398148D02*
X111350000Y-68637740D01*
X156981625Y-111577058D02*
X146604567Y-101200000D01*
X111115000Y-53807944D02*
X111730000Y-53192944D01*
%TO.N,16*%
X167910000Y-90510812D02*
X167910000Y-97770000D01*
X160375000Y-61017944D02*
X160375000Y-71115000D01*
X157640000Y-73850000D02*
X157640000Y-80240812D01*
X160375000Y-71115000D02*
X157640000Y-73850000D01*
X157640000Y-80240812D02*
X167910000Y-90510812D01*
X169001034Y-98861034D02*
X169001034Y-100918830D01*
X167910000Y-97770000D02*
X169001034Y-98861034D01*
%TO.N,17*%
X168360000Y-97546320D02*
X168360000Y-89382944D01*
X171200739Y-102188830D02*
X171200739Y-100387059D01*
X160375000Y-81397944D02*
X160375000Y-78017944D01*
X171200739Y-100387059D02*
X168360000Y-97546320D01*
X168360000Y-89382944D02*
X160375000Y-81397944D01*
%TO.N,18*%
X173400443Y-103458830D02*
X173400443Y-101950367D01*
X125325000Y-35542944D02*
X120825000Y-40042944D01*
X173400443Y-101950367D02*
X168912500Y-97462424D01*
X165624390Y-43377334D02*
X157790000Y-35542944D01*
X168912500Y-88512500D02*
X165624390Y-85224390D01*
X168912500Y-97462424D02*
X168912500Y-88512500D01*
X165624390Y-85224390D02*
X165624390Y-43377334D01*
X157790000Y-35542944D02*
X125325000Y-35542944D01*
%TO.N,19*%
X175051743Y-104180425D02*
X175051743Y-102328875D01*
X175600148Y-104728830D02*
X175051743Y-104180425D01*
X176035000Y-54857944D02*
X178375000Y-52517944D01*
X169812500Y-97089632D02*
X169812500Y-88917500D01*
X176035000Y-82695000D02*
X176035000Y-54857944D01*
X175051743Y-102328875D02*
X169812500Y-97089632D01*
X169812500Y-88917500D02*
X176035000Y-82695000D01*
%TO.N,20*%
X177799852Y-104440588D02*
X177799852Y-105998830D01*
X178375000Y-69517944D02*
X178375000Y-81935000D01*
X178375000Y-81935000D02*
X170262500Y-90047500D01*
X170262500Y-96903236D02*
X177799852Y-104440588D01*
X170262500Y-90047500D02*
X170262500Y-96903236D01*
%TO.N,21*%
X194075000Y-49067944D02*
X194075000Y-43117944D01*
X179999557Y-107268830D02*
X179999557Y-105367501D01*
X190602944Y-52540000D02*
X194075000Y-49067944D01*
X183574390Y-54659214D02*
X185690660Y-52542944D01*
X171162500Y-96530444D02*
X171162500Y-93267500D01*
X179999557Y-105367501D02*
X171162500Y-96530444D01*
X187105204Y-52542944D02*
X187108148Y-52540000D01*
X171162500Y-93267500D02*
X171970000Y-92460000D01*
X181430000Y-92460000D02*
X183574390Y-90315610D01*
X185690660Y-52542944D02*
X187105204Y-52542944D01*
X171970000Y-92460000D02*
X181430000Y-92460000D01*
X183574390Y-90315610D02*
X183574390Y-54659214D01*
X187108148Y-52540000D02*
X190602944Y-52540000D01*
%TO.N,GND*%
X171075000Y-58817944D02*
X171600000Y-59342944D01*
X122517056Y-42160000D02*
X120590000Y-42160000D01*
X106375000Y-52517944D02*
X106375000Y-69517944D01*
X123188604Y-37042944D02*
X120825000Y-37042944D01*
X142375000Y-56767944D02*
X142375000Y-73767944D01*
X183375000Y-45317944D02*
X174575000Y-45317944D01*
X108107944Y-110217944D02*
X106375000Y-108485000D01*
X189125000Y-84367944D02*
X189075000Y-84317944D01*
X106375000Y-69517944D02*
X106375000Y-86517944D01*
X118117056Y-34192944D02*
X106375000Y-45935000D01*
X174314187Y-94305444D02*
X180538719Y-94305444D01*
X106375000Y-108485000D02*
X106375000Y-103517944D01*
X189075000Y-50317944D02*
X184075000Y-45317944D01*
X171600000Y-75292944D02*
X171075000Y-75817944D01*
X186598670Y-108814927D02*
X173662500Y-95878757D01*
X175508966Y-121737058D02*
X174579261Y-121737058D01*
X124375000Y-103517944D02*
X128600000Y-99292944D01*
X142375000Y-39767944D02*
X141125000Y-38517944D01*
X106375000Y-51685000D02*
X111042056Y-47017944D01*
X164350000Y-35092944D02*
X125138604Y-35092944D01*
X186598670Y-111078830D02*
X186598670Y-108814927D01*
X171600000Y-59342944D02*
X171600000Y-75292944D01*
X120590000Y-42160000D02*
X119460000Y-41030000D01*
X173662500Y-94957131D02*
X174314187Y-94305444D01*
X142375000Y-104917944D02*
X142375000Y-116267944D01*
X111042056Y-47017944D02*
X121375000Y-47017944D01*
X176778966Y-123007058D02*
X175508966Y-121737058D01*
X189125000Y-84267944D02*
X189125000Y-67367944D01*
X124375000Y-68067944D02*
X132225000Y-75917944D01*
X188950000Y-94310000D02*
X189125000Y-94135000D01*
X196940000Y-59452944D02*
X196940000Y-41633604D01*
X174575000Y-45317944D02*
X171075000Y-41817944D01*
X189125000Y-67367944D02*
X189075000Y-67317944D01*
X171600000Y-58292944D02*
X171075000Y-58817944D01*
X121375000Y-47017944D02*
X124375000Y-44017944D01*
X120422056Y-110217944D02*
X108107944Y-110217944D01*
X124375000Y-44017944D02*
X122517056Y-42160000D01*
X106375000Y-86517944D02*
X106375000Y-103517944D01*
X142375000Y-56767944D02*
X142375000Y-39767944D01*
X171075000Y-41817944D02*
X171600000Y-42342944D01*
X180538719Y-94305444D02*
X180543275Y-94310000D01*
X128600000Y-99292944D02*
X136750000Y-99292944D01*
X173662500Y-95878757D02*
X173662500Y-94957131D01*
X106375000Y-45935000D02*
X106375000Y-52517944D01*
X196940000Y-41633604D02*
X189499340Y-34192944D01*
X124375000Y-106265000D02*
X120422056Y-110217944D01*
X135075000Y-75817944D02*
X140325000Y-75817944D01*
X141125000Y-38517944D02*
X129875000Y-38517944D01*
X171600000Y-42342944D02*
X171600000Y-58292944D01*
X189075000Y-67317944D02*
X196940000Y-59452944D01*
X184075000Y-45317944D02*
X183375000Y-45317944D01*
X119460000Y-38407944D02*
X120825000Y-37042944D01*
X106375000Y-52517944D02*
X106375000Y-51685000D01*
X136750000Y-99292944D02*
X142375000Y-104917944D01*
X180543275Y-94310000D02*
X188950000Y-94310000D01*
X129875000Y-38517944D02*
X124375000Y-44017944D01*
X189499340Y-34192944D02*
X118117056Y-34192944D01*
X124375000Y-103517944D02*
X124375000Y-106265000D01*
X119460000Y-41030000D02*
X119460000Y-38407944D01*
X189075000Y-84317944D02*
X189125000Y-84267944D01*
X125138604Y-35092944D02*
X123188604Y-37042944D01*
X171075000Y-41817944D02*
X164350000Y-35092944D01*
X189125000Y-94135000D02*
X189125000Y-84367944D01*
X124375000Y-61017944D02*
X124375000Y-68067944D01*
X140325000Y-75817944D02*
X142375000Y-73767944D01*
%TO.N,3v3*%
X187294544Y-52990000D02*
X190862944Y-52990000D01*
X116525000Y-39307944D02*
X116525000Y-45542944D01*
X124952208Y-34642944D02*
X124835152Y-34760000D01*
X196490000Y-47362944D02*
X196490000Y-41820000D01*
X189312944Y-34642944D02*
X124952208Y-34642944D01*
X184034390Y-54835610D02*
X185877056Y-52992944D01*
X181720000Y-93030000D02*
X184024390Y-90725610D01*
X185877056Y-52992944D02*
X187291600Y-52992944D01*
X190862944Y-52990000D02*
X196490000Y-47362944D01*
X196490000Y-41820000D02*
X189312944Y-34642944D01*
X182199261Y-109778105D02*
X182199261Y-108538830D01*
X184034390Y-71407335D02*
X184034390Y-54835610D01*
X184024390Y-90725610D02*
X184024390Y-71417335D01*
X124835152Y-34760000D02*
X121072944Y-34760000D01*
X182199261Y-105342205D02*
X172275000Y-95417944D01*
X174662944Y-93030000D02*
X181720000Y-93030000D01*
X187291600Y-52992944D02*
X187294544Y-52990000D01*
X184024390Y-71417335D02*
X184034390Y-71407335D01*
X121072944Y-34760000D02*
X116525000Y-39307944D01*
X182199261Y-108538830D02*
X182199261Y-105342205D01*
X188798375Y-112348830D02*
X184769986Y-112348830D01*
X172275000Y-95417944D02*
X174662944Y-93030000D01*
X184769986Y-112348830D02*
X182199261Y-109778105D01*
%TO.N,1*%
X150130000Y-128780000D02*
X165577944Y-128780000D01*
X175165734Y-125547058D02*
X181178375Y-125547058D01*
X135075000Y-101317944D02*
X135075000Y-113725000D01*
X167120000Y-125222944D02*
X169350000Y-125222944D01*
X169350000Y-126298358D02*
X174414434Y-126298358D01*
X169350000Y-125222944D02*
X169350000Y-126298358D01*
X174414434Y-126298358D02*
X175165734Y-125547058D01*
X165577944Y-128780000D02*
X167120000Y-127237944D01*
X167120000Y-127237944D02*
X167120000Y-125222944D01*
X135075000Y-113725000D02*
X150130000Y-128780000D01*
%TO.N,2*%
X163376548Y-128330000D02*
X166933604Y-124772944D01*
X159730000Y-128330000D02*
X163376548Y-128330000D01*
X153075000Y-114067944D02*
X153075000Y-121675000D01*
X153075000Y-121675000D02*
X159730000Y-128330000D01*
X178482784Y-124772944D02*
X178978670Y-124277058D01*
X166933604Y-124772944D02*
X178482784Y-124772944D01*
%TO.N,15*%
X160375000Y-44017944D02*
X157190000Y-47202944D01*
X157190000Y-47202944D02*
X157190000Y-80427208D01*
X166801330Y-90038538D02*
X166801330Y-99648830D01*
X157190000Y-80427208D02*
X166801330Y-90038538D01*
%TO.N,14*%
X153740000Y-61500000D02*
X153740000Y-58970000D01*
X153910000Y-79260000D02*
X153910000Y-75676396D01*
X155890000Y-47070000D02*
X153075000Y-44255000D01*
X156280000Y-73306396D02*
X156280000Y-64040000D01*
X164601625Y-98378830D02*
X164601625Y-89951625D01*
X156280000Y-64040000D02*
X153740000Y-61500000D01*
X153075000Y-44255000D02*
X153075000Y-37567944D01*
X153740000Y-58970000D02*
X155890000Y-56820000D01*
X153910000Y-75676396D02*
X156280000Y-73306396D01*
X164601625Y-89951625D02*
X153910000Y-79260000D01*
X155890000Y-56820000D02*
X155890000Y-47070000D01*
%TO.N,7*%
X127225000Y-78017944D02*
X124375000Y-78017944D01*
%TO.N,5*%
X170712500Y-92255444D02*
X170712500Y-96716840D01*
X178375000Y-86517944D02*
X176450000Y-86517944D01*
X179001152Y-106581792D02*
X167980148Y-117602796D01*
X179001152Y-105005492D02*
X179001152Y-106581792D01*
X170712500Y-96716840D02*
X179001152Y-105005492D01*
X167980148Y-117602796D02*
X167980148Y-117927058D01*
X176450000Y-86517944D02*
X170712500Y-92255444D01*
%TO.N,Net-(J2-Pad2)*%
X162630000Y-124322944D02*
X177167056Y-124322944D01*
X177167056Y-124322944D02*
X187939870Y-113550130D01*
X189295970Y-113550130D02*
X190060000Y-112786100D01*
X160615000Y-126337944D02*
X162630000Y-124322944D01*
X190060000Y-112786100D02*
X190060000Y-110702944D01*
X187939870Y-113550130D02*
X189295970Y-113550130D01*
X190060000Y-110702944D02*
X174775000Y-95417944D01*
%TO.N,B-*%
X168714114Y-126817058D02*
X168235000Y-126337944D01*
X183378079Y-126817058D02*
X168714114Y-126817058D01*
%TD*%
M02*
