M48
; DRILL file {KiCad 7.0.9-7.0.9~ubuntu22.04.1} date Ср 09 апр 2025 21:57:11
; FORMAT={-:-/ absolute / inch / decimal}
; #@! TF.CreationDate,2025-04-09T21:57:11+03:00
; #@! TF.GenerationSoftware,Kicad,Pcbnew,7.0.9-7.0.9~ubuntu22.04.1
; #@! TF.FileFunction,Plated,1,2,PTH
FMAT,2
INCH
; #@! TA.AperFunction,Plated,PTH,ComponentDrill
T1C0.0394
; #@! TA.AperFunction,Plated,PTH,ComponentDrill
T2C0.0413
; #@! TA.AperFunction,Plated,PTH,ComponentDrill
T3C0.0430
; #@! TA.AperFunction,Plated,PTH,ComponentDrill
T4C0.1201
%
G90
G05
T1
X6.3234Y-4.9739
X6.6234Y-4.9739
T2
X6.7825Y-3.7566
X6.8809Y-3.7566
T3
X6.1804Y-4.3928
X6.267Y-4.4428
X6.343Y-4.3712
X6.3536Y-4.4928
X6.393Y-4.2846
X6.4402Y-4.5428
X6.443Y-4.198
X6.4804Y-3.8732
X6.5268Y-4.5928
X6.567Y-3.9232
X6.6134Y-4.6428
X6.6536Y-3.9732
X6.7Y-4.6928
X6.7402Y-4.0232
X6.7866Y-4.7428
X6.8268Y-4.0732
X6.8732Y-4.7928
X6.9134Y-4.1232
X6.9598Y-4.8428
X7.0Y-4.1732
X7.0464Y-4.8928
X7.0866Y-4.2232
X7.133Y-4.9428
X7.1732Y-4.2732
X7.2196Y-4.9928
X7.2598Y-4.3232
X7.3464Y-4.3732
X7.433Y-4.4232
X7.5196Y-4.4732
T4
X4.3002Y-2.0676
X4.3002Y-2.7369
X4.3002Y-3.4062
X4.3002Y-4.0755
X4.497Y-1.985
X4.497Y-2.6542
X4.497Y-3.3235
X4.497Y-3.9928
X5.0089Y-1.733
X5.0089Y-2.4023
X5.0089Y-3.0716
X5.0089Y-4.0755
X5.2057Y-1.6503
X5.2057Y-2.3196
X5.2057Y-2.9889
X5.2057Y-3.9928
X5.7175Y-1.5657
X5.7175Y-2.235
X5.7175Y-2.9042
X5.7175Y-3.5735
X5.7175Y-4.5775
X5.9144Y-1.483
X5.9144Y-2.1523
X5.9144Y-2.8216
X5.9144Y-3.4909
X5.9144Y-4.4948
X6.4262Y-1.733
X6.4262Y-2.4023
X6.4262Y-3.0716
X6.623Y-1.6503
X6.623Y-2.3196
X6.623Y-2.9889
X7.1348Y-2.0676
X7.1348Y-2.7369
X7.1348Y-3.4062
X7.3317Y-1.7802
X7.3317Y-1.985
X7.3317Y-2.6542
X7.3317Y-3.3235
X7.5285Y-1.6976
T1
G00X4.5876Y-1.7832
M15
G01X4.5876Y-1.8029
M16
G05
G00X4.7569Y-1.4485
M15
G01X4.7569Y-1.4682
M16
G05
G00X4.7569Y-1.5667
M15
G01X4.7569Y-1.5863
M16
G05
G00X4.7569Y-1.7241
M15
G01X4.7569Y-1.7438
M16
G05
T0
M30
